<?xml version="1.0" encoding="utf-8"?>
<!-- Generator: Adobe Illustrator 16.0.0, SVG Export Plug-In . SVG Version: 6.00 Build 0)  -->
<!DOCTYPE svg PUBLIC "-//W3C//DTD SVG 1.1//EN" "http://www.w3.org/Graphics/SVG/1.1/DTD/svg11.dtd">
<svg version="1.1" id="Layer_1" xmlns="http://www.w3.org/2000/svg" xmlns:xlink="http://www.w3.org/1999/xlink" x="0px" y="0px"
	 width="1400px" height="1568px" viewBox="0 0 1400 1568" enable-background="new 0 0 1400 1568" xml:space="preserve">
<g>
	<rect fill="#FFFFFF" width="1400" height="1568"/>
</g>
<g>
	<path fill="#F1F2F2" d="M134.2,1324h59.4c18.3-35.5,55.3-59.9,98-59.9c40.1,0,75.2,21.4,94.5,53.5h-86.2c-28.4,0-51.4,23-51.4,51.4
		v10.7c0,28.3,23,51.3,51.4,51.3H386c-19.3,32-54.4,53.5-94.5,53.5c-42.7,0-79.7-24.3-98-59.9h-91.3L134.2,1324z"/>
</g>
<g>
	<path fill="#F1F2F2" d="M1240.6,845.7c0,285.2-231.2,516.3-516.3,516.3c-285.2,0-516.3-231.2-516.3-516.3s231.2-516.3,516.3-516.3
		C1009.4,329.4,1240.6,560.5,1240.6,845.7z"/>
</g>
<g>
	<g>
		<path d="M205.4,592.8c1.3,19.6,7.7,35.2,19.2,46.8c11.6,11.6,27.4,17.3,47.4,17.3c17.5,0,32.1-4.4,43.8-13.1
			c13.3-9.6,20-22.7,20-39.4c0-17.3-7-30.3-21-39.1c-6.9-4.6-21.9-10-45-16.3c-0.2-0.2-1.6-0.6-4.1-1.2
			c-25.8-7.3-42.2-14.1-49.1-20.3c-10.6-9.6-15.9-22-15.9-37.2c0-19.2,6.7-33.9,20-44.1c12.3-9.8,28.2-14.7,47.5-14.7
			c21.1,0,37.9,5.7,50.7,17.2c13.1,11.5,20.2,27.7,21.3,48.8h-10c-0.4-18.2-6.6-32.3-18.5-42.5c-11.5-9.8-26.2-14.7-44.1-14.7
			c-16.7,0-30.1,4.2-40.3,12.5c-11,8.8-16.6,21.3-16.6,37.5c0,11.7,4.6,21.8,13.8,30.3c6.9,6.2,21.7,12.3,44.4,18.1
			c0.4,0.2,1,0.4,1.7,0.5c0.7,0.1,1.6,0.4,2.6,0.8c24,6.5,40.5,12.5,49.4,18.1c15.8,10.2,23.8,24.7,23.8,43.5
			c0,20.9-7.4,37.1-22.2,48.8c-13.5,10.4-31.1,15.7-52.5,15.7c-22.7,0-40.8-6.6-54.1-19.7c-13.6-12.7-21.1-30.5-22.5-53.5H205.4z"/>
	</g>
	<g>
		<path d="M399.9,466.4c17.5-23.3,42.8-35,76-35c33.4,0,58.8,11.6,76.3,34.7c15.6,21.1,23.5,48.7,23.5,82.9
			c0,34.4-7.8,61.9-23.5,82.6c-17.5,22.9-42.9,34.4-76.3,34.4c-33.4,0-58.7-11.5-76-34.4c-15.6-20.6-23.5-48.2-23.5-82.6
			C376.5,515,384.3,487.5,399.9,466.4z M407.8,624.4c15.4,21.7,38.1,32.5,68.2,32.5c30.2,0,53.1-10.8,68.5-32.5
			c13.5-19,20.3-44.1,20.3-75.4c0-31.1-6.9-56.2-20.6-75.4c-15.6-21.9-38.4-32.8-68.2-32.8c-29.8,0-52.5,10.9-68.2,32.8
			c-13.6,19.2-20.3,44.3-20.3,75.4C387.4,580,394.2,605.2,407.8,624.4z"/>
	</g>
	<g>
		<path d="M762.1,645.3c-15.4,13.5-35.7,20.3-60.7,20.3c-32.1,0-56.3-11.8-72.5-35.3c-14-20.2-21-47.2-21-81
			c0-33.8,7.2-61.2,21.6-82.2c16.5-23.8,41.1-35.7,73.8-35.7c22.3,0,41.2,6.2,56.6,18.4c11,8.8,18.9,19.5,23.5,32.2l-9.7,5
			c-10.2-30.8-34.3-46.3-72.2-46.3c-28.1,0-49.5,11.6-64.1,34.7c-12.3,19.6-18.5,44.2-18.5,73.8c0,29.8,5.9,54.2,17.8,73.2
			c14.2,22.9,35.2,34.4,63.2,34.4c22.5,0,40.8-6,54.7-18.1c10.8-9.4,18-21.5,21.6-36.3l9.1,4.7C781.3,622.4,773.6,635.1,762.1,645.3
			z"/>
	</g>
	<g>
		<path d="M832.1,436.4h10.3v224.8h-10.3V436.4z"/>
	</g>
	<g>
		<path d="M954.7,436.4h11.9l85.4,224.8h-10.3l-29.1-76.6H907.8l-29.4,76.6h-10.3L954.7,436.4z M1008.8,575.3l-48.2-126.6
			l-49.1,126.6H1008.8z"/>
	</g>
	<g>
		<path d="M1075.1,436.4h10.6v214.8h119.1v10h-129.8V436.4z"/>
	</g>
</g>
<g>
	<g>
		<path d="M268.6,731.2h15l81.9,158.2l78.8-158.2h14.7v224.9h-9.4V744.4l-81.3,157.9h-6.3L278,744.4v211.7h-9.4V731.2z"/>
	</g>
	<g>
		<path d="M510.4,731.2h137.3v10H521v92.9h100.4v9.7H521v102.3h129.8v10H510.4V731.2z"/>
	</g>
	<g>
		<path d="M687.7,731.2h51.6c33.2,0,57.2,3.7,72.2,10.9c33.2,16.7,49.7,50.6,49.7,101.6c0,51.9-16.6,85.7-49.7,101.3
			c-15.8,7.3-39.9,11-72.2,11h-51.6V731.2z M741.8,946.7c30.2,0,52.5-3.8,66.9-11.3c27.7-14.6,41.6-45.1,41.6-91.6
			c0-37.7-9.9-65.6-29.7-83.5c-9.4-8.3-21.8-14-37.2-16.9c-4.8-0.8-10.6-1.5-17.5-1.9c-6.9-0.4-14.9-0.6-24.1-0.6h-43.5v205.8H741.8
			z"/>
	</g>
	<g>
		<path d="M904.7,731.2H915v224.9h-10.3V731.2z"/>
	</g>
	<g>
		<path d="M1027.3,731.2h11.9l85.4,224.9h-10.3l-29.1-76.6H980.4L951,956.1h-10.3L1027.3,731.2z M1081.4,870.1l-48.2-126.7
			l-49.1,126.7H1081.4z"/>
	</g>
</g>
<g>
	<path d="M1072.3,387c-1,0-1.9-0.4-2.6-1.2C976.2,269.1,837,202.2,687.7,202.2c-149.3,0-288.6,66.9-382.1,183.6
		c-1.1,1.4-3.2,1.7-4.6,0.5c-1.4-1.1-1.6-3.2-0.5-4.6c94.8-118.2,235.9-186,387.2-186c151.3,0,292.5,67.8,387.2,186
		c1.1,1.4,0.9,3.5-0.5,4.6C1073.8,386.8,1073.1,387,1072.3,387z"/>
</g>
<g>
	<path d="M687.7,1187.8c-144.8,0-282.1-63.1-376.5-173.1c-1.2-1.4-1-3.5,0.4-4.6c1.4-1.2,3.5-1,4.6,0.3
		c93.2,108.6,228.6,170.8,371.6,170.8c142.9,0,278.4-62.3,371.5-170.8c1.2-1.4,3.3-1.5,4.6-0.3c1.4,1.2,1.5,3.3,0.3,4.6
		C969.8,1124.7,832.5,1187.8,687.7,1187.8z"/>
</g>
<g>
	<polygon fill="#FF596F" points="444.4,500 529,548.8 444.4,597.7 	"/>
	<path fill="#231F20" d="M444.4,601c-0.6,0-1.1-0.1-1.6-0.4c-1-0.6-1.6-1.7-1.6-2.9V500c0-1.2,0.6-2.3,1.6-2.9c1-0.6,2.3-0.6,3.3,0
		l84.6,48.8c1,0.6,1.6,1.7,1.6,2.8c0,1.2-0.6,2.3-1.6,2.9l-84.6,48.8C445.5,600.8,445,601,444.4,601z M447.7,505.7V592l74.7-43.1
		L447.7,505.7z"/>
</g>
<g>
	<g>
		<polygon fill="#00E1B6" points="367.6,1060.2 444.4,1102 521.2,1060.2 444.4,1018.3 		"/>
		<path d="M444.4,1105.3c-0.5,0-1.1-0.1-1.6-0.4L366,1063c-1.1-0.6-1.7-1.7-1.7-2.9c0-1.2,0.7-2.3,1.7-2.9l76.8-41.8
			c1-0.5,2.2-0.5,3.1,0l76.8,41.8c1.1,0.6,1.7,1.7,1.7,2.9c0,1.2-0.7,2.3-1.7,2.9l-76.8,41.8C445.5,1105.1,445,1105.3,444.4,1105.3z
			 M374.5,1060.2l69.9,38.1l69.9-38.1l-69.9-38.1L374.5,1060.2z"/>
	</g>
	<g>
		<polygon fill="#FFFFFF" points="367.6,1060.2 367.6,1137 444.4,1178.8 444.4,1102 		"/>
		<path d="M444.4,1182.1c-0.5,0-1.1-0.1-1.6-0.4l-76.8-41.8c-1.1-0.6-1.7-1.7-1.7-2.9v-76.8c0-1.2,0.6-2.2,1.6-2.8
			c1-0.6,2.2-0.6,3.3-0.1l76.8,41.8c1.1,0.6,1.7,1.7,1.7,2.9v76.8c0,1.2-0.6,2.2-1.6,2.8C445.6,1181.9,445,1182.1,444.4,1182.1z
			 M370.9,1135l70.2,38.2v-69.3l-70.2-38.2V1135z"/>
	</g>
	<g>
		<polygon fill="#FFFFFF" points="444.4,1178.8 521.2,1137 521.2,1060.2 444.4,1102 		"/>
		<path d="M444.4,1182.1c-0.6,0-1.2-0.2-1.7-0.5c-1-0.6-1.6-1.7-1.6-2.8V1102c0-1.2,0.7-2.3,1.7-2.9l76.8-41.8
			c1-0.6,2.3-0.5,3.3,0.1c1,0.6,1.6,1.7,1.6,2.8v76.8c0,1.2-0.7,2.3-1.7,2.9l-76.8,41.8C445.5,1182,445,1182.1,444.4,1182.1z
			 M447.7,1103.9v69.3l70.2-38.2v-69.3L447.7,1103.9z"/>
	</g>
</g>
<g>
	<g>
		<path fill="#FFFFFF" d="M139.1,1375.1h91.3c18.3,35.5,55.3,59.9,98,59.9c40.1,0,75.2-21.4,94.5-53.5h-86.2
			c-28.4,0-51.4-23-51.4-51.3v-10.7c0-28.3,23-51.4,51.4-51.4h86.2c-19.3-32-54.4-53.5-94.5-53.5c-42.7,0-79.7,24.3-98,59.9H171"/>
		<path d="M328.3,1438.3c-42,0-80.2-22.9-100-59.9h-89.3c-1.8,0-3.3-1.5-3.3-3.3c0-1.8,1.5-3.3,3.3-3.3h91.3c1.2,0,2.4,0.7,2.9,1.8
			c18.4,35.8,54.9,58.1,95.1,58.1c35.9,0,68.5-17.4,88.5-46.9h-80.2c-30.1,0-54.6-24.5-54.6-54.6v-10.7c0-30.1,24.5-54.6,54.6-54.6
			h80.2c-19.9-29.5-52.6-46.9-88.5-46.9c-40.2,0-76.6,22.3-95.1,58.1c-0.6,1.1-1.7,1.8-2.9,1.8H171c-1.8,0-3.3-1.5-3.3-3.3
			c0-1.8,1.5-3.3,3.3-3.3h57.4c19.8-37,58-59.9,100-59.9c39.6,0,76.9,21.1,97.3,55.1c0.6,1,0.6,2.3,0,3.3c-0.6,1-1.7,1.7-2.9,1.7
			h-86.2c-26.5,0-48.1,21.6-48.1,48.1v10.7c0,26.5,21.6,48,48.1,48h86.2c1.2,0,2.3,0.6,2.9,1.7c0.6,1,0.6,2.3,0,3.3
			C404.9,1417.7,368.5,1438.3,328.3,1438.3z"/>
	</g>
	<g>
		<path d="M229.8,1340.7H123.7c-1.8,0-3.3-1.5-3.3-3.3c0-1.8,1.5-3.3,3.3-3.3h106.1c1.8,0,3.3,1.5,3.3,3.3
			C233.1,1339.2,231.6,1340.7,229.8,1340.7z"/>
	</g>
</g>
<g>
	<g>
		<path fill="#F1F2F2" d="M982.6,273.8c0,13.6-2.3,26.6-6.6,38.7c7.7,2.4,15,5.7,21.9,9.5c11-13,17.6-29.9,17.6-48.2
			c0-18.4-6.6-35.2-17.6-48.2c-6.9,3.9-14.2,7.1-21.9,9.5C980.3,247.3,982.6,260.3,982.6,273.8z"/>
		<path d="M997.9,325.3c-0.6,0-1.1-0.1-1.6-0.4c-6.8-3.8-14-7-21.3-9.3c-0.8-0.3-1.5-0.9-1.9-1.7c-0.4-0.8-0.5-1.7-0.2-2.6
			c4.2-12.1,6.4-24.7,6.4-37.6c0-12.8-2.1-25.5-6.4-37.6c-0.3-0.8-0.2-1.8,0.2-2.6c0.4-0.8,1.1-1.4,1.9-1.7
			c7.3-2.3,14.5-5.5,21.3-9.3c1.4-0.8,3.1-0.5,4.1,0.7c11.8,14.1,18.4,31.9,18.4,50.3c0,18.4-6.5,36.3-18.4,50.3
			C999.8,324.9,998.9,325.3,997.9,325.3z M980.2,310.4c5.8,2,11.4,4.5,16.9,7.4c9.8-12.5,15.1-28.1,15.1-44c0-16-5.4-31.5-15.1-44
			c-5.5,2.9-11.1,5.4-16.9,7.4c3.8,11.8,5.7,24.1,5.7,36.6C985.9,286.3,984,298.6,980.2,310.4z"/>
	</g>
	<g>
		<path fill="#FFFFFF" d="M956.9,200.7c8.2,10.2,14.7,21.8,19.1,34.4c7.7-2.4,15-5.7,21.9-9.5C987.5,213.3,973.2,204.3,956.9,200.7z
			"/>
		<path d="M976,238.4c-1.4,0-2.6-0.8-3.1-2.2c-4.3-12.1-10.5-23.4-18.6-33.5c-0.9-1.1-1-2.6-0.2-3.8c0.7-1.2,2.1-1.8,3.5-1.5
			c16.6,3.7,31.8,12.9,42.8,26c0.6,0.7,0.9,1.7,0.7,2.7c-0.2,1-0.8,1.8-1.6,2.3c-7.2,4-14.7,7.3-22.5,9.8
			C976.7,238.4,976.4,238.4,976,238.4z M965.4,206.6c5.1,7.6,9.4,15.8,12.7,24.4c5-1.7,9.9-3.9,14.7-6.3
			C985.1,216.7,975.7,210.5,965.4,206.6z"/>
	</g>
	<g>
		<path fill="#FFFFFF" d="M956.9,346.9c16.3-3.6,30.6-12.5,41-24.9c-6.9-3.9-14.2-7.1-21.9-9.5C971.6,325.1,965.1,336.7,956.9,346.9
			z"/>
		<path d="M956.9,350.2c-1.1,0-2.2-0.6-2.8-1.6c-0.7-1.2-0.6-2.7,0.2-3.8c8.1-10,14.3-21.3,18.6-33.4c0.6-1.7,2.4-2.6,4.1-2
			c7.7,2.5,15.3,5.8,22.5,9.8c0.9,0.5,1.5,1.3,1.6,2.3c0.2,1-0.1,2-0.7,2.7c-11,13.1-26.2,22.3-42.8,26
			C957.4,350.2,957.2,350.2,956.9,350.2z M978,316.6c-3.3,8.6-7.5,16.8-12.7,24.4c10.3-3.8,19.7-10,27.3-18
			C987.9,320.5,983,318.4,978,316.6z"/>
	</g>
	<g>
		<path fill="#F1F2F2" d="M898.7,273.8c0-13.6,2.3-26.6,6.6-38.7c-7.7-2.4-15-5.7-21.9-9.5c-11,13-17.6,29.8-17.6,48.2
			c0,18.4,6.6,35.2,17.6,48.2c6.9-3.9,14.2-7.1,21.9-9.5C901,300.4,898.7,287.4,898.7,273.8z"/>
		<path d="M883.4,325.3c-0.9,0-1.9-0.4-2.5-1.2c-11.8-14.1-18.4-31.9-18.4-50.3c0-18.4,6.5-36.3,18.4-50.3c1-1.2,2.8-1.5,4.1-0.7
			c6.8,3.8,14,6.9,21.3,9.3c0.8,0.3,1.5,0.9,1.9,1.7c0.4,0.8,0.5,1.7,0.2,2.6c-4.2,12.1-6.4,24.7-6.4,37.6c0,12.9,2.2,25.5,6.4,37.6
			c0.3,0.8,0.2,1.8-0.2,2.6c-0.4,0.8-1.1,1.4-1.9,1.7c-7.3,2.3-14.4,5.4-21.3,9.3C884.5,325.2,883.9,325.3,883.4,325.3z
			 M884.2,229.8c-9.8,12.5-15.1,28.1-15.1,44c0,15.9,5.4,31.5,15.1,44c5.5-2.9,11.1-5.4,16.9-7.4c-3.8-11.8-5.7-24.1-5.7-36.6
			c0-12.5,1.9-24.8,5.7-36.6C895.3,235.2,889.6,232.7,884.2,229.8z"/>
	</g>
	<g>
		<path fill="#FFFFFF" d="M905.2,235.2c-4.3,12.1-6.6,25.1-6.6,38.7c0,13.6,2.3,26.6,6.6,38.7c11.2-3.5,23.1-5.5,35.4-5.5
			c12.3,0,24.2,1.9,35.4,5.5c4.2-12.1,6.6-25.1,6.6-38.7c0-13.6-2.3-26.6-6.6-38.7c-11.2,3.5-23.1,5.5-35.4,5.5
			C928.3,240.6,916.4,238.7,905.2,235.2z"/>
		<path d="M976,315.8c-0.3,0-0.7,0-1-0.2c-22.2-7.1-46.6-7.1-68.8,0c-1.7,0.5-3.5-0.4-4.1-2c-4.5-12.8-6.8-26.2-6.8-39.8
			c0-13.6,2.3-27,6.8-39.8c0.6-1.7,2.4-2.6,4.1-2c22.2,7,46.6,7,68.8,0c1.7-0.5,3.5,0.4,4.1,2c4.5,12.8,6.8,26.2,6.8,39.8
			c0,13.6-2.3,27-6.8,39.8C978.7,314.9,977.4,315.8,976,315.8z M907.3,239.2c-3.6,11.2-5.4,22.8-5.4,34.6c0,11.8,1.8,23.4,5.4,34.6
			c21.6-6.2,45-6.2,66.6,0c3.6-11.2,5.4-22.8,5.4-34.6c0-11.8-1.8-23.4-5.4-34.6C952.3,245.5,929,245.5,907.3,239.2z"/>
	</g>
	<g>
		<path fill="#FFFFFF" d="M924.4,200.7c-16.3,3.6-30.6,12.5-41,24.9c6.9,3.9,14.2,7.1,21.9,9.5C909.7,222.6,916.2,210.9,924.4,200.7
			z"/>
		<path d="M905.2,238.4c-0.3,0-0.7,0-1-0.2c-7.7-2.5-15.3-5.8-22.5-9.8c-0.9-0.5-1.5-1.3-1.6-2.3c-0.2-1,0.1-2,0.7-2.7
			c11-13.1,26.2-22.3,42.8-26c1.3-0.3,2.8,0.3,3.5,1.5c0.7,1.2,0.6,2.7-0.2,3.8c-8.1,10.1-14.3,21.3-18.6,33.4
			C907.9,237.6,906.6,238.4,905.2,238.4z M888.6,224.7c4.8,2.5,9.7,4.6,14.7,6.3c3.3-8.6,7.5-16.8,12.7-24.4
			C905.6,210.5,896.2,216.7,888.6,224.7z"/>
	</g>
	<g>
		<path fill="#F1F2F2" d="M940.6,240.6c12.3,0,24.2-1.9,35.4-5.5c-4.4-12.6-10.9-24.2-19.1-34.4c-5.3-1.2-10.7-1.8-16.3-1.8
			c-5.6,0-11,0.6-16.3,1.8c-8.2,10.2-14.7,21.8-19.1,34.4C916.4,238.7,928.3,240.6,940.6,240.6z"/>
		<path d="M940.6,243.9c-12.4,0-24.6-1.9-36.4-5.6c-0.8-0.3-1.6-0.9-1.9-1.7c-0.4-0.8-0.5-1.7-0.2-2.6c4.5-12.8,11.1-24.7,19.7-35.4
			c0.5-0.6,1.1-1,1.9-1.2c11.2-2.5,22.7-2.5,34,0c0.7,0.2,1.4,0.6,1.9,1.2c8.5,10.6,15.2,22.5,19.7,35.4c0.3,0.8,0.2,1.8-0.2,2.6
			c-0.4,0.8-1.1,1.4-1.9,1.7C965.3,242,953,243.9,940.6,243.9z M909.5,233c20.2,5.7,42,5.7,62.2,0c-4.1-10.5-9.7-20.4-16.7-29.3
			c-9.6-2-19.3-2-28.9,0C919.2,212.6,913.6,222.5,909.5,233z"/>
	</g>
	<g>
		<path fill="#FFFFFF" d="M883.4,322c10.4,12.3,24.7,21.3,41,24.9c-8.2-10.2-14.7-21.8-19.1-34.4C897.6,314.9,890.3,318.2,883.4,322
			z"/>
		<path d="M924.4,350.2c-0.2,0-0.5,0-0.7-0.1c-16.6-3.7-31.8-12.9-42.8-26c-0.6-0.7-0.9-1.7-0.7-2.7c0.2-1,0.8-1.8,1.6-2.3
			c7.2-4.1,14.8-7.4,22.5-9.8c1.7-0.6,3.5,0.4,4.1,2c4.2,12.1,10.5,23.4,18.6,33.4c0.9,1.1,1,2.6,0.2,3.8
			C926.6,349.6,925.5,350.2,924.4,350.2z M888.6,323c7.6,8,17,14.2,27.3,18c-5.2-7.6-9.4-15.8-12.7-24.4
			C898.3,318.4,893.4,320.5,888.6,323z"/>
	</g>
	<g>
		<path fill="#F1F2F2" d="M940.6,307c-12.3,0-24.2,1.9-35.4,5.5c4.4,12.6,10.9,24.2,19.1,34.4c5.2,1.2,10.7,1.8,16.3,1.8
			c5.6,0,11-0.6,16.3-1.8c8.2-10.2,14.7-21.8,19.1-34.4C964.9,309,953,307,940.6,307z"/>
		<path d="M940.6,352c-5.7,0-11.4-0.6-17-1.9c-0.7-0.2-1.4-0.6-1.8-1.1c-8.6-10.6-15.2-22.5-19.7-35.4c-0.3-0.8-0.2-1.8,0.2-2.6
			c0.4-0.8,1.1-1.4,1.9-1.7c23.5-7.5,49.3-7.5,72.8,0c0.8,0.3,1.5,0.9,1.9,1.7c0.4,0.8,0.5,1.7,0.2,2.6
			c-4.5,12.8-11.1,24.7-19.7,35.4c-0.5,0.6-1.1,1-1.9,1.2C952,351.4,946.3,352,940.6,352z M926.2,343.9c9.5,2,19.3,2,28.9,0
			c7-8.9,12.6-18.7,16.7-29.3c-20.2-5.7-42-5.7-62.2,0C913.6,325.2,919.2,335,926.2,343.9z"/>
	</g>
</g>
<g>
	<path d="M679,1049.2H575.7c-1.8,0-3.3-1.5-3.3-3.3c0-1.8,1.5-3.3,3.3-3.3H679c1.8,0,3.3,1.5,3.3,3.3
		C682.3,1047.8,680.9,1049.2,679,1049.2z"/>
</g>
<g>
	<path d="M679,1088.4H575.7c-1.8,0-3.3-1.5-3.3-3.3c0-1.8,1.5-3.3,3.3-3.3H679c1.8,0,3.3,1.5,3.3,3.3
		C682.3,1087,680.9,1088.4,679,1088.4z"/>
</g>
<g>
	<path d="M679,1127.6H575.7c-1.8,0-3.3-1.5-3.3-3.3c0-1.8,1.5-3.3,3.3-3.3H679c1.8,0,3.3,1.5,3.3,3.3
		C682.3,1126.2,680.9,1127.6,679,1127.6z"/>
</g>
<g>
	<g>
		<path fill="#FF596F" d="M700,121.1c-44.9,0-81.3,36.4-81.3,81.3c0,17.2,5.4,33.2,14.5,46.4L700,360.2l66.8-111.5
			c9.1-13.2,14.5-29.1,14.5-46.4C781.3,157.5,744.9,121.1,700,121.1z M700,248.2c-23,0-41.6-18.6-41.6-41.6
			c0-23,18.6-41.6,41.6-41.6c22.9,0,41.6,18.6,41.6,41.6C741.6,229.5,723,248.2,700,248.2z"/>
		<path fill="#231F20" d="M700,363.5c-1.2,0-2.2-0.6-2.8-1.6l-66.8-111.5c-9.8-14-15-30.7-15-48.1c0-46.7,38-84.6,84.6-84.6
			c46.7,0,84.6,38,84.6,84.6c0,17.3-5.2,34-15.1,48.2l-66.7,111.3C702.2,362.9,701.2,363.5,700,363.5z M700,124.3c-43,0-78,35-78,78
			c0,16,4.8,31.4,13.9,44.5L700,353.8L764,247c9.2-13.3,14-28.7,14-44.7C778,159.3,743,124.3,700,124.3z M700,251.5
			c-24.7,0-44.8-20.1-44.8-44.9c0-24.7,20.1-44.9,44.8-44.9c24.7,0,44.9,20.1,44.9,44.9C744.9,231.3,724.7,251.5,700,251.5z
			 M700,168.3c-21.1,0-38.3,17.2-38.3,38.3c0,21.1,17.2,38.3,38.3,38.3c21.1,0,38.3-17.2,38.3-38.3
			C738.3,185.5,721.1,168.3,700,168.3z"/>
	</g>
</g>
<g>
	<polygon fill="#FFFFFF" points="666.3,1308.4 538.3,1308.4 500.5,1394.5 666.3,1394.5 704.2,1308.4 	"/>
	<path d="M666.3,1397.8H500.5c-1.1,0-2.1-0.6-2.8-1.5c-0.6-0.9-0.7-2.1-0.3-3.1l37.8-86.1c0.5-1.2,1.7-2,3-2h165.9
		c1.1,0,2.1,0.6,2.8,1.5c0.6,0.9,0.7,2.1,0.3,3.1l-37.9,86.1C668.8,1397,667.6,1397.8,666.3,1397.8z M505.5,1391.2h158.7l35-79.5
		H540.5L505.5,1391.2z"/>
</g>
<g>
	<polygon fill="#FF596F" points="587.3,1290.2 560,1255.2 500.5,1255.2 500.5,1290.2 500.5,1394.5 538.3,1308.4 666.3,1308.4 
		666.3,1290.2 	"/>
	<path fill="#231F20" d="M500.5,1397.8c-0.2,0-0.4,0-0.7-0.1c-1.5-0.3-2.6-1.7-2.6-3.2v-139.3c0-1.8,1.5-3.3,3.3-3.3H560
		c1,0,2,0.5,2.6,1.3l26.3,33.7h77.5c1.8,0,3.3,1.5,3.3,3.3v18.2c0,1.8-1.5,3.3-3.3,3.3H540.5l-37,84.1
		C502.9,1397,501.7,1397.8,500.5,1397.8z M503.7,1258.5v120.3l31.5-71.8c0.5-1.2,1.7-2,3-2H663v-11.6h-75.8c-1,0-2-0.5-2.6-1.3
		l-26.3-33.7H503.7z"/>
</g>
<g>
	<g>
		<polygon fill="#FFFFFF" points="1032.6,1247.4 768.6,1247.4 900.6,1353.5 		"/>
		<path d="M900.6,1356.8c-0.7,0-1.5-0.2-2.1-0.7l-132-106.1c-1.1-0.9-1.5-2.3-1-3.7c0.5-1.3,1.7-2.2,3.1-2.2h263.9
			c1.4,0,2.6,0.9,3.1,2.2c0.5,1.3,0,2.8-1,3.7l-132,106.1C902.1,1356.5,901.3,1356.8,900.6,1356.8z M778,1250.6l122.6,98.6
			l122.6-98.6H778z"/>
	</g>
	<g>
		<polygon fill="#FFF08E" points="900.6,1353.5 768.6,1247.4 768.6,1402.3 1032.6,1402.3 1032.6,1247.4 		"/>
		<path d="M1032.6,1405.6H768.6c-1.8,0-3.3-1.5-3.3-3.3v-155c0-1.3,0.7-2.4,1.9-3c1.1-0.5,2.5-0.4,3.5,0.4l129.9,104.5l129.9-104.5
			c1-0.8,2.3-0.9,3.5-0.4c1.1,0.5,1.9,1.7,1.9,3v155C1035.9,1404.2,1034.4,1405.6,1032.6,1405.6z M771.9,1399.1h257.4v-144.8
			l-126.6,101.8c-1.2,1-2.9,1-4.1,0l-126.6-101.8V1399.1z"/>
	</g>
</g>
<g>
	<g>
		<path fill="#00E1B6" d="M551.2,254.8l-22.9-7.5c-2.2-9-5.8-17.8-11-25.9l10.5-21.7c-0.7-0.9-1.5-1.8-2.2-2.7
			c-16.3-18.8-37.8-30.5-60.5-34.9l-14.2,19.4c-9.3-0.7-18.8,0.1-28,2.4l-17.4-16.7c-11.3,4.4-22.1,10.7-31.7,19.2
			c-9.7,8.4-17.5,18.2-23.4,28.8l14.1,19.6c-3.6,8.7-5.7,18-6.3,27.4l-21.2,11.4c1.3,23.1,9.9,46,26.2,64.8c0.8,0.9,1.5,1.7,2.3,2.5
			l22.9-7.4c7.3,6.2,15.5,11,24.1,14.5l4.3,23.8c24,6.3,49.8,4.3,72.8-6.4l0.1-24.2c3.9-2.4,7.7-5.2,11.4-8.4
			c3.6-3.1,6.9-6.5,9.8-10.1l23.9,3.3C548.5,304.7,554.1,279.4,551.2,254.8z"/>
		<path d="M444.3,378.6c-9.6,0-19.1-1.2-28.4-3.7c-1.2-0.3-2.2-1.3-2.4-2.6l-4-22c-8-3.3-15.3-7.7-21.9-13.1l-21.2,6.8
			c-1.2,0.4-2.6,0-3.4-0.9l-0.7-0.8c-0.6-0.6-1.1-1.2-1.7-1.8c-16.3-18.8-25.7-41.9-27-66.7c-0.1-1.3,0.6-2.5,1.7-3.1l19.6-10.5
			c0.7-8.5,2.6-16.8,5.7-24.9l-13-18.1c-0.7-1-0.8-2.4-0.2-3.5c6.2-11.2,14.3-21.2,24.1-29.7c9.6-8.4,20.7-15.1,32.7-19.8
			c1.2-0.5,2.5-0.2,3.5,0.7l16.1,15.4c8.3-2,16.9-2.7,25.4-2.2l13.2-18c0.8-1,2-1.5,3.3-1.3c24.4,4.8,46,17.2,62.3,36l2.3,2.7
			c0.8,1,1,2.4,0.4,3.5l-9.7,20.1c4.5,7.3,7.8,15.2,10,23.5l21.2,7c1.2,0.4,2.1,1.5,2.2,2.7c3.1,25.7-2.9,51.7-16.9,73.4
			c-0.7,1.1-2,1.6-3.2,1.5l-22.2-3c-2.8,3.3-5.9,6.3-9,9.1c-3.2,2.8-6.5,5.3-10.2,7.7l-0.1,22.4c0,1.3-0.7,2.4-1.9,3
			C476.2,375.2,460.6,378.6,444.3,378.6z M419.6,369.1c22.2,5.4,45.8,3.3,66.7-5.8l0.1-22.1c0-1.1,0.6-2.2,1.6-2.8
			c4-2.5,7.6-5.1,10.9-8c3.3-2.9,6.5-6.2,9.5-9.7c0.7-0.9,1.8-1.3,3-1.2l21.8,3c12-19.4,17.3-42.4,15-65.2l-20.9-6.9
			c-1.1-0.4-1.9-1.2-2.2-2.4c-2.1-8.8-5.7-17.2-10.6-24.9c-0.6-1-0.7-2.2-0.2-3.2l9.6-19.8l-0.8-1c-14.9-17.1-34.4-28.7-56.6-33.4
			l-13,17.7c-0.7,0.9-1.7,1.5-2.9,1.3c-9-0.7-18.1,0.1-26.9,2.4c-1.1,0.3-2.3,0-3.1-0.8l-15.9-15.2c-10.6,4.4-20.3,10.3-28.8,17.8
			c-8.7,7.5-15.9,16.3-21.6,26.1l12.9,17.8c0.7,0.9,0.8,2.1,0.4,3.2c-3.5,8.5-5.5,17.3-6.1,26.3c-0.1,1.1-0.7,2.2-1.7,2.7
			l-19.4,10.4c1.7,22.6,10.4,43.5,25.3,60.7c0.3,0.3,0.6,0.6,0.8,0.9l20.9-6.7c1.1-0.3,2.3-0.1,3.1,0.6c6.9,5.9,14.7,10.5,23.2,13.9
			c1.1,0.4,1.8,1.4,2,2.5L419.6,369.1z"/>
	</g>
	<g>
		<path fill="#FFFFFF" d="M482.1,268.7c0,20.8-16.9,37.7-37.7,37.7c-20.8,0-37.7-16.9-37.7-37.7c0-20.8,16.9-37.7,37.7-37.7
			C465.2,231,482.1,247.9,482.1,268.7z"/>
		<path d="M444.4,309.7c-22.6,0-41-18.4-41-41s18.4-41,41-41c22.6,0,41,18.4,41,41S467,309.7,444.4,309.7z M444.4,234.3
			c-19,0-34.4,15.4-34.4,34.4c0,19,15.4,34.4,34.4,34.4c19,0,34.4-15.4,34.4-34.4C478.8,249.7,463.4,234.3,444.4,234.3z"/>
	</g>
</g>
<g>
	<path fill="#FFF08E" d="M1238,525.6c0,31.4-25.4,56.8-56.8,56.8c-31.3,0-56.8-25.4-56.8-56.8c0-31.4,25.4-56.8,56.8-56.8
		C1212.6,468.8,1238,494.3,1238,525.6z"/>
	<path d="M1181.3,585.7c-33.1,0-60.1-26.9-60.1-60.1c0-33.1,26.9-60.1,60.1-60.1c33.1,0,60.1,26.9,60.1,60.1
		C1241.3,558.7,1214.4,585.7,1181.3,585.7z M1181.3,472.1c-29.5,0-53.5,24-53.5,53.5c0,29.5,24,53.5,53.5,53.5
		c29.5,0,53.5-24,53.5-53.5C1234.8,496.1,1210.8,472.1,1181.3,472.1z"/>
</g>
<g>
	<g>
		<path d="M1214.4,528.9h-66.2c-1.8,0-3.3-1.5-3.3-3.3c0-1.8,1.5-3.3,3.3-3.3h66.2c1.8,0,3.3,1.5,3.3,3.3
			C1217.7,527.4,1216.2,528.9,1214.4,528.9z"/>
	</g>
	<g>
		<path d="M1181.3,562c-1.8,0-3.3-1.5-3.3-3.3v-66.2c0-1.8,1.5-3.3,3.3-3.3c1.8,0,3.3,1.5,3.3,3.3v66.2
			C1184.6,560.5,1183.1,562,1181.3,562z"/>
	</g>
</g>
<g>
	<path fill="#FFEDC1" d="M782.5,831.9c0,13.1-10.6,23.6-23.7,23.6l0,0c-13.1,0-23.7-10.6-23.7-23.6v-15.3
		c0-13.1,10.6-23.7,23.7-23.7l0,0c13.1,0,23.7,10.6,23.7,23.7V831.9z"/>
	<path d="M758.9,858.8c-14.9,0-27-12.1-27-26.9v-15.3c0-14.9,12.1-27,27-27c14.9,0,27,12.1,27,27v15.3
		C785.8,846.7,773.7,858.8,758.9,858.8z M758.9,796.2c-11.2,0-20.4,9.1-20.4,20.4v15.3c0,11.2,9.1,20.4,20.4,20.4
		c11.2,0,20.4-9.1,20.4-20.4v-15.3C779.2,805.3,770.1,796.2,758.9,796.2z"/>
</g>
<g>
	<path fill="#00E1B6" d="M823.8,929.4v-23.2c0,0,2.3-31.7-25.9-35.6h-12l-27.1,23.2l-27.1-23.2h-12c-28.2,3.9-25.9,35.6-25.9,35.6
		v35.9v8.7h48.9C742.8,950.8,811,955.7,823.8,929.4z"/>
	<path d="M755.2,954.5C755.2,954.5,755.2,954.5,755.2,954.5c-7.5,0-12.4-0.3-12.6-0.4l-48.6,0c-1.8,0-3.3-1.5-3.3-3.3v-44.7
		c-0.9-11.8,4-35.4,28.7-38.8l12.4,0c0.8,0,1.5,0.3,2.1,0.8l24.9,21.4l24.9-21.4c0.6-0.5,1.4-0.8,2.1-0.8h12
		c25.2,3.4,30.1,27.1,29.2,39.1l0,23c0,0.5-0.1,1-0.3,1.4C816.7,951.4,777.6,954.5,755.2,954.5z M697.2,947.5h45.6
		c0.3,0,5.1,0.3,12.4,0.3c16.6,0,55.9-1.9,65.3-19.3v-22.4c0.1-1.4,1.7-28.9-23.1-32.3l-10.3,0L761,896.3c-1.2,1.1-3,1.1-4.3,0
		l-26.1-22.4h-10.8c-24.4,3.4-22.7,30.9-22.6,32L697.2,947.5z"/>
</g>
<g>
	<g>
		<path fill="#00E1B6" d="M711.1,576.1c0,16-13,29-29,29c-16,0-29-13-29-29c0-16,13-29,29-29C698.2,547.2,711.1,560.1,711.1,576.1z"
			/>
		<path d="M682.2,608.4c-17.8,0-32.2-14.5-32.2-32.2c0-17.8,14.5-32.3,32.2-32.3c17.8,0,32.3,14.5,32.3,32.3
			C714.4,593.9,700,608.4,682.2,608.4z M682.2,550.5c-14.1,0-25.7,11.5-25.7,25.7c0,14.1,11.5,25.7,25.7,25.7
			c14.2,0,25.7-11.5,25.7-25.7C707.8,562,696.3,550.5,682.2,550.5z"/>
	</g>
	<g>
		<path d="M738.4,579.4c-1.8,0-3.3-1.5-3.3-3.3c0-29.2-23.8-53-53-53c-1.8,0-3.3-1.5-3.3-3.3c0-1.8,1.5-3.3,3.3-3.3
			c32.8,0,59.5,26.7,59.5,59.5C741.7,578,740.2,579.4,738.4,579.4z"/>
	</g>
	<g>
		<path d="M766.3,579.4c-1.8,0-3.3-1.5-3.3-3.3c0-44.6-36.3-80.9-80.9-80.9c-1.8,0-3.3-1.5-3.3-3.3s1.5-3.3,3.3-3.3
			c48.2,0,87.5,39.2,87.5,87.5C769.6,578,768.2,579.4,766.3,579.4z"/>
	</g>
</g>
<g>
	<g>
		<path fill="#FFFFFF" d="M1143.8,1338.9c-1.2,0-2.3-0.3-3.4-0.7v51.7h67.1v-51.9c-1.2,0.5-2.5,0.9-3.9,0.9H1143.8z"/>
		<path d="M1207.4,1393.2h-67.1c-1.8,0-3.3-1.5-3.3-3.3v-51.7c0-1.1,0.5-2.1,1.4-2.7c0.9-0.6,2-0.8,3-0.4c0.9,0.3,1.7,0.5,2.3,0.5
			h59.7c0.8,0,1.7-0.2,2.7-0.6c1-0.4,2.2-0.3,3.1,0.3c0.9,0.6,1.5,1.6,1.5,2.7v51.9C1210.7,1391.8,1209.2,1393.2,1207.4,1393.2z
			 M1143.6,1386.7h60.5v-44.5c-0.2,0-0.4,0-0.6,0h-59.7c-0.1,0-0.1,0-0.1,0V1386.7z"/>
	</g>
	<g>
		<path fill="#00E1B6" d="M1173.6,1128.7c-47.9,0-86.7,38.8-86.7,86.7c0,32.8,18.2,61.3,45.1,76v35.6c0,5.3,3.5,9.7,8.3,11.2
			c1.1,0.3,2.2,0.6,3.4,0.6h59.7c1.4,0,2.7-0.3,3.9-0.7c4.5-1.6,7.8-5.9,7.8-11v-35.6c26.8-14.7,45-43.2,45-76
			C1260.3,1167.5,1221.5,1128.7,1173.6,1128.7z"/>
		<path d="M1203.5,1342.1h-59.7c-1.4,0-2.8-0.2-4.4-0.7c-6.4-2-10.6-7.7-10.6-14.3v-33.7c-27.8-16.1-45.1-45.8-45.1-78
			c0-49.6,40.4-90,90-90c49.6,0,90,40.4,90,90c0,32.2-17.2,61.9-45,78v33.7c0,6.3-4,12-10,14.1
			C1206.8,1341.8,1205.1,1342.1,1203.5,1342.1z M1173.6,1132c-46,0-83.4,37.4-83.4,83.4c0,30.4,16.6,58.5,43.3,73.1
			c1.1,0.6,1.7,1.7,1.7,2.9v35.6c0,3.7,2.4,6.9,6,8c0.9,0.3,1.7,0.4,2.5,0.4h59.7c0.9,0,1.8-0.2,2.8-0.5c3.4-1.2,5.6-4.4,5.6-7.9
			v-35.6c0-1.2,0.7-2.3,1.7-2.9c26.7-14.7,43.3-42.7,43.3-73.1C1257,1169.4,1219.6,1132,1173.6,1132z"/>
	</g>
	<g>
		<line fill="#FFFFFF" x1="1155" y1="1402.9" x2="1192.7" y2="1402.9"/>
		<path d="M1192.7,1406.2H1155c-1.8,0-3.3-1.5-3.3-3.3c0-1.8,1.5-3.3,3.3-3.3h37.7c1.8,0,3.3,1.5,3.3,3.3
			C1196,1404.8,1194.5,1406.2,1192.7,1406.2z"/>
	</g>
	<g>
		<line fill="#FFFFFF" x1="1127" y1="1356.2" x2="1220.2" y2="1349.3"/>
		<path d="M1127,1359.5c-1.7,0-3.1-1.3-3.3-3c-0.1-1.8,1.2-3.4,3-3.5l93.3-7c1.8-0.1,3.4,1.2,3.5,3c0.1,1.8-1.2,3.4-3,3.5l-93.3,7
			C1127.1,1359.5,1127.1,1359.5,1127,1359.5z"/>
	</g>
	<g>
		<line fill="#FFFFFF" x1="1127" y1="1375.3" x2="1220.2" y2="1368.4"/>
		<path d="M1127,1378.6c-1.7,0-3.1-1.3-3.3-3c-0.1-1.8,1.2-3.4,3-3.5l93.3-6.9c1.8-0.2,3.4,1.2,3.5,3c0.1,1.8-1.2,3.4-3,3.5
			l-93.3,6.9C1127.1,1378.6,1127.1,1378.6,1127,1378.6z"/>
	</g>
</g>
<g>
	<path d="M340.2,1140.2h-88.2c-1.8,0-3.3-1.5-3.3-3.3c0-1.8,1.5-3.3,3.3-3.3h88.2c1.8,0,3.3,1.5,3.3,3.3
		C343.5,1138.8,342.1,1140.2,340.2,1140.2z"/>
</g>
<g>
	<path d="M213,1140.2h-29.5c-1.8,0-3.3-1.5-3.3-3.3c0-1.8,1.5-3.3,3.3-3.3H213c1.8,0,3.3,1.5,3.3,3.3
		C216.3,1138.8,214.8,1140.2,213,1140.2z"/>
</g>
<g>
	<polygon fill="#FF596F" points="747,1153.3 747,1049.2 775,1049.2 797.1,1016.9 819.3,1049.2 937.9,1049.2 937.9,1153.3 	"/>
	<path fill="#231F20" d="M937.9,1156.6H747c-1.8,0-3.3-1.5-3.3-3.3v-104.1c0-1.8,1.5-3.3,3.3-3.3h26.2l21.2-30.9
		c1.2-1.8,4.2-1.8,5.4,0l21.2,30.9h116.8c1.8,0,3.3,1.5,3.3,3.3v104.1C941.2,1155.1,939.7,1156.6,937.9,1156.6z M750.3,1150h184.3
		v-97.5H819.3c-1.1,0-2.1-0.5-2.7-1.4l-19.5-28.3l-19.5,28.3c-0.6,0.9-1.6,1.4-2.7,1.4h-24.7V1150z"/>
</g>
<g>
	<path fill="#FFFFFF" d="M883.1,1102.1c0-7.3,5.9-13.2,13.2-13.2c7.3,0,13.2,5.9,13.2,13.2c0,7.3-5.9,13.2-13.2,13.2
		C889,1115.3,883.1,1109.4,883.1,1102.1z"/>
	<path d="M896.3,1118.6c-9.1,0-16.5-7.4-16.5-16.5c0-9.1,7.4-16.5,16.5-16.5s16.5,7.4,16.5,16.5
		C912.9,1111.2,905.4,1118.6,896.3,1118.6z M896.3,1092.2c-5.5,0-9.9,4.5-9.9,9.9c0,5.5,4.5,9.9,9.9,9.9c5.5,0,9.9-4.5,9.9-9.9
		C906.3,1096.6,901.8,1092.2,896.3,1092.2z"/>
</g>
<g>
	<path fill="#FFFFFF" d="M832.3,1102.1c0-7.3,5.9-13.2,13.2-13.2c7.3,0,13.2,5.9,13.2,13.2c0,7.3-5.9,13.2-13.2,13.2
		C838.2,1115.3,832.3,1109.4,832.3,1102.1z"/>
	<path d="M845.5,1118.6c-9.1,0-16.5-7.4-16.5-16.5c0-9.1,7.4-16.5,16.5-16.5c9.1,0,16.5,7.4,16.5,16.5
		C862,1111.2,854.6,1118.6,845.5,1118.6z M845.5,1092.2c-5.5,0-9.9,4.5-9.9,9.9c0,5.5,4.5,9.9,9.9,9.9c5.5,0,9.9-4.5,9.9-9.9
		C855.4,1096.6,851,1092.2,845.5,1092.2z"/>
</g>
<g>
	<path fill="#FFFFFF" d="M781.4,1102.1c0-7.3,5.9-13.2,13.2-13.2c7.3,0,13.2,5.9,13.2,13.2c0,7.3-5.9,13.2-13.2,13.2
		C787.4,1115.3,781.4,1109.4,781.4,1102.1z"/>
	<path d="M794.7,1118.6c-9.1,0-16.5-7.4-16.5-16.5c0-9.1,7.4-16.5,16.5-16.5c9.1,0,16.5,7.4,16.5,16.5
		C811.2,1111.2,803.8,1118.6,794.7,1118.6z M794.7,1092.2c-5.5,0-9.9,4.5-9.9,9.9c0,5.5,4.5,9.9,9.9,9.9c5.5,0,9.9-4.5,9.9-9.9
		C804.6,1096.6,800.2,1092.2,794.7,1092.2z"/>
</g>
<g>
	<path d="M1002.5,1156.6h-37.8c-1.8,0-3.3-1.5-3.3-3.3c0-1.8,1.5-3.3,3.3-3.3h37.8c1.8,0,3.3,1.5,3.3,3.3
		C1005.7,1155.1,1004.3,1156.6,1002.5,1156.6z"/>
</g>
<g>
	<path d="M1061.7,1156.6h-29.1c-1.8,0-3.3-1.5-3.3-3.3c0-1.8,1.5-3.3,3.3-3.3h29.1c1.8,0,3.3,1.5,3.3,3.3
		C1065,1155.1,1063.5,1156.6,1061.7,1156.6z"/>
</g>
<g>
	<path d="M1260.3,753.8h-135.8c-1.8,0-3.3-1.5-3.3-3.3c0-1.8,1.5-3.3,3.3-3.3h135.8c1.8,0,3.3,1.5,3.3,3.3
		C1263.6,752.4,1262.1,753.8,1260.3,753.8z"/>
</g>
<g>
	<path d="M1260.3,819.6h-39.4c-1.8,0-3.3-1.5-3.3-3.3s1.5-3.3,3.3-3.3h39.4c1.8,0,3.3,1.5,3.3,3.3S1262.1,819.6,1260.3,819.6z"/>
</g>
<g>
	<path d="M198.2,734.5h-33c-1.8,0-3.3-1.5-3.3-3.3s1.5-3.3,3.3-3.3h33c1.8,0,3.3,1.5,3.3,3.3S200,734.5,198.2,734.5z"/>
</g>
<g>
	<path d="M198.2,796.2H86.9c-1.8,0-3.3-1.5-3.3-3.3c0-1.8,1.5-3.3,3.3-3.3h111.4c1.8,0,3.3,1.5,3.3,3.3
		C201.5,794.7,200,796.2,198.2,796.2z"/>
</g>
<g>
	<path d="M198.2,891h-59.1c-1.8,0-3.3-1.5-3.3-3.3c0-1.8,1.5-3.3,3.3-3.3h59.1c1.8,0,3.3,1.5,3.3,3.3C201.5,889.6,200,891,198.2,891
		z"/>
</g>
</svg>
