<?xml version="1.0" encoding="utf-8"?>
<!-- Generator: Adobe Illustrator 16.0.0, SVG Export Plug-In . SVG Version: 6.00 Build 0)  -->
<!DOCTYPE svg PUBLIC "-//W3C//DTD SVG 1.1//EN" "http://www.w3.org/Graphics/SVG/1.1/DTD/svg11.dtd">
<svg version="1.1" xmlns="http://www.w3.org/2000/svg" xmlns:xlink="http://www.w3.org/1999/xlink" x="0px" y="0px"
	 width="335.986px" height="235.19px" viewBox="0 0 335.986 235.19" enable-background="new 0 0 335.986 235.19"
	 xml:space="preserve">
<g id="bg">
	<g>
		<g>
			<rect x="-0.466" y="-0.298" fill="#F9FBFF" width="335.986" height="235.19"/>
		</g>
	</g>
	<g>
		<polyline fill="none" stroke="#231F20" stroke-width="2" stroke-linejoin="round" stroke-miterlimit="10" points="287.148,46.368 
			283.1,41.771 279.137,46.368 		"/>
		
			<line fill="none" stroke="#231F20" stroke-width="2" stroke-linejoin="round" stroke-miterlimit="10" x1="283.238" y1="41.771" x2="283.238" y2="63.245"/>
	</g>
	<polyline fill="none" stroke="#231F20" stroke-width="2" stroke-linejoin="round" stroke-miterlimit="10" points="276.012,33.475 
		271.963,28.877 267.998,33.475 	"/>
	
		<line fill="none" stroke="#0E3C54" stroke-width="2" stroke-miterlimit="10" stroke-dasharray="2" x1="272.154" y1="28.877" x2="272.154" y2="51.043"/>
	
		<line fill="none" stroke="#0E3C54" stroke-width="2" stroke-miterlimit="10" stroke-dasharray="2" x1="272.154" y1="54.508" x2="272.154" y2="77.367"/>
	
		<line fill="none" stroke="#0E3C54" stroke-width="2" stroke-miterlimit="10" stroke-dasharray="2" x1="99.027" y1="178.053" x2="99.027" y2="130.33"/>
	<g>
		<polyline fill="none" stroke="#231F20" stroke-width="2" stroke-linejoin="round" stroke-miterlimit="10" points="94.002,177.946 
			89.953,182.544 85.99,177.946 		"/>
		
			<line fill="none" stroke="#231F20" stroke-width="2" stroke-linejoin="round" stroke-miterlimit="10" x1="90.092" y1="182.544" x2="90.092" y2="146.896"/>
	</g>
	
		<rect x="63.81" y="201.355" fill="#FFFFFF" stroke="#3D3437" stroke-width="2" stroke-miterlimit="10" width="8.278" height="12.953"/>
	
		<rect x="55.531" y="183.577" fill="none" stroke="#3D3437" stroke-width="2" stroke-miterlimit="10" width="8.278" height="30.731"/>
	<rect x="43.256" y="175.251" fill="#FFEF63" width="8.275" height="36.058"/>
	
		<rect x="47.256" y="178.251" fill="none" stroke="#0E3C54" stroke-width="2" stroke-miterlimit="10" width="8.275" height="36.058"/>
	
		<rect x="38.976" y="191.926" fill="#FFFFFF" stroke="#3D3437" stroke-width="2" stroke-miterlimit="10" width="8.28" height="22.383"/>
	<path fill="#FFEF63" d="M220.294,75.557h-96.89c-2.545,0-4.584,2.037-4.584,4.584v86.462c0,2.547,2.039,4.584,4.584,4.584h96.833
		c2.545,0,4.584-2.037,4.584-4.584V80.141C224.876,77.594,222.782,75.557,220.294,75.557z"/>
	<path fill="none" stroke="#0E3C54" stroke-width="2" stroke-miterlimit="10" d="M217.294,71.557h-96.89
		c-2.545,0-4.584,2.037-4.584,4.584v86.462c0,2.547,2.039,4.584,4.584,4.584h96.833c2.545,0,4.584-2.037,4.584-4.584V76.141
		C221.876,73.594,219.782,71.557,217.294,71.557z"/>
	
		<rect x="120.404" y="82.818" fill="#FFFFFF" stroke="#0E3C54" stroke-width="2" stroke-miterlimit="10" width="96.89" height="79.558"/>
	<circle fill="#FFFFFF" stroke="#0E3C54" stroke-width="2" stroke-miterlimit="10" cx="125.711" cy="77.347" r="2.26"/>
	<circle fill="#FFFFFF" stroke="#0E3C54" stroke-width="2" stroke-miterlimit="10" cx="132.638" cy="77.347" r="2.26"/>
	<circle fill="#FFFFFF" stroke="#0E3C54" stroke-width="2" stroke-miterlimit="10" cx="139.564" cy="77.347" r="2.26"/>
	
		<line fill="#FFFFFF" stroke="#0E3C54" stroke-width="2" stroke-miterlimit="10" x1="166.635" y1="77.347" x2="215.305" y2="77.347"/>
	
		<rect x="129.363" y="91" fill="#FFFFFF" stroke="#0E3C54" stroke-width="2" stroke-miterlimit="10" width="26.043" height="26.043"/>
	
		<rect x="164.703" y="91" fill="#FFFFFF" stroke="#0E3C54" stroke-width="2" stroke-miterlimit="10" width="13.629" height="13.629"/>
	
		<rect x="164.703" y="115.783" fill="#FFFFFF" stroke="#0E3C54" stroke-width="2" stroke-miterlimit="10" width="13.629" height="13.629"/>
	
		<rect x="164.703" y="140.566" fill="#FFFFFF" stroke="#0E3C54" stroke-width="2" stroke-miterlimit="10" width="13.629" height="13.629"/>
	<line fill="#FFFFFF" stroke="#0E3C54" stroke-width="2" stroke-miterlimit="10" x1="129.363" y1="125" x2="155.406" y2="125"/>
	
		<line fill="#FFFFFF" stroke="#0E3C54" stroke-width="2" stroke-miterlimit="10" x1="129.363" y1="132.299" x2="149.486" y2="132.299"/>
	
		<line fill="#FFFFFF" stroke="#0E3C54" stroke-width="2" stroke-miterlimit="10" x1="129.363" y1="139.598" x2="155.406" y2="139.598"/>
	<line fill="#FFFFFF" stroke="#0E3C54" stroke-width="2" stroke-miterlimit="10" x1="129.363" y1="146.896" x2="136" y2="146.896"/>
	
		<line fill="#FFFFFF" stroke="#0E3C54" stroke-width="2" stroke-miterlimit="10" x1="139.066" y1="146.896" x2="155.406" y2="146.896"/>
	
		<line fill="#FFFFFF" stroke="#0E3C54" stroke-width="2" stroke-miterlimit="10" x1="129.363" y1="154.195" x2="155.406" y2="154.195"/>
	
		<line fill="#FFFFFF" stroke="#0E3C54" stroke-width="2" stroke-miterlimit="10" x1="184.27" y1="118.947" x2="190.906" y2="118.947"/>
	
		<line fill="#FFFFFF" stroke="#0E3C54" stroke-width="2" stroke-miterlimit="10" x1="193.973" y1="118.947" x2="210.312" y2="118.947"/>
	
		<line fill="#FFFFFF" stroke="#0E3C54" stroke-width="2" stroke-miterlimit="10" x1="184.27" y1="126.246" x2="210.312" y2="126.246"/>
	
		<line fill="#FFFFFF" stroke="#0E3C54" stroke-width="2" stroke-miterlimit="10" x1="184.27" y1="94.165" x2="190.906" y2="94.165"/>
	
		<line fill="#FFFFFF" stroke="#0E3C54" stroke-width="2" stroke-miterlimit="10" x1="193.973" y1="94.165" x2="210.312" y2="94.165"/>
	
		<line fill="#FFFFFF" stroke="#0E3C54" stroke-width="2" stroke-miterlimit="10" x1="184.27" y1="101.464" x2="210.312" y2="101.464"/>
	
		<line fill="#FFFFFF" stroke="#0E3C54" stroke-width="2" stroke-miterlimit="10" x1="184.27" y1="143.247" x2="190.906" y2="143.247"/>
	
		<line fill="#FFFFFF" stroke="#0E3C54" stroke-width="2" stroke-miterlimit="10" x1="193.973" y1="143.247" x2="210.312" y2="143.247"/>
	
		<line fill="#FFFFFF" stroke="#0E3C54" stroke-width="2" stroke-miterlimit="10" x1="184.27" y1="150.546" x2="210.312" y2="150.546"/>
	<g>
		<path fill="#FFEF63" stroke="#0E3C54" stroke-width="2" stroke-miterlimit="10" d="M155.399,117.375
			c-0.938-5.279-6.391-8.783-13-8.783s-12.063,3.504-13.003,8.783H155.399z"/>
		<circle fill="#FFEF63" stroke="#0E3C54" stroke-width="2" stroke-miterlimit="10" cx="142.399" cy="100.652" r="5.969"/>
	</g>
	<g>
		<path fill="#FFFFFF" d="M78.26,148.829c0,1.649-1.351,3-3,3H22.796c-1.65,0-3-1.351-3-3V96.365c0-1.65,1.35-3,3-3H75.26
			c1.649,0,3,1.35,3,3V148.829z"/>
		<path fill="none" stroke="#3D3437" stroke-width="2" stroke-linecap="round" stroke-linejoin="round" stroke-miterlimit="10" d="
			M78.26,148.829c0,1.649-1.351,3-3,3H22.796c-1.65,0-3-1.351-3-3V96.365c0-1.65,1.35-3,3-3H75.26c1.649,0,3,1.35,3,3V148.829z"/>
	</g>
	
		<line fill="none" stroke="#3D3437" stroke-width="2" stroke-linecap="round" stroke-linejoin="round" stroke-miterlimit="10" x1="20.804" y1="103.445" x2="77.252" y2="103.445"/>
	<path fill="#3D3437" d="M28.286,98.405c0,0.696-0.562,1.26-1.262,1.26c-0.693,0-1.259-0.563-1.259-1.26s0.565-1.26,1.259-1.26
		C27.724,97.146,28.286,97.709,28.286,98.405"/>
	<path fill="#3D3437" d="M33.325,98.405c0,0.696-0.562,1.26-1.26,1.26c-0.695,0-1.26-0.563-1.26-1.26s0.564-1.26,1.26-1.26
		C32.763,97.146,33.325,97.709,33.325,98.405"/>
	<path fill="#3D3437" d="M38.366,98.405c0,0.696-0.563,1.26-1.261,1.26c-0.695,0-1.259-0.563-1.259-1.26s0.563-1.26,1.259-1.26
		C37.803,97.146,38.366,97.709,38.366,98.405"/>
	<line fill="none" stroke="#3D3437" stroke-width="2" stroke-miterlimit="10" x1="50.716" y1="98.256" x2="74.54" y2="98.256"/>
	<path fill="#FFFFFF" stroke="#0E3C54" stroke-width="2" stroke-miterlimit="10" d="M98.078,25.297H45.703
		c-0.523,0-0.945,0.426-0.945,0.949v35.022c0,0.519,0.422,0.944,0.945,0.944h52.375c0.523,0,0.949-0.426,0.949-0.944V26.246
		C99.027,25.723,98.602,25.297,98.078,25.297z"/>
	<path fill="#FFFFFF" stroke="#0E3C54" stroke-width="2" stroke-miterlimit="10" d="M96.363,20.316H47.418
		c-3.904,0-7.076,3.166-7.076,7.076v32.729c0,3.908,3.172,7.074,7.076,7.074h16.08v3.952h-8.117c-1.463,0-2.654,1.19-2.654,2.654
		c0,1.468,1.191,2.653,2.654,2.653h33.021c1.469,0,2.658-1.186,2.658-2.653c0-1.464-1.189-2.654-2.658-2.654h-8.117v-3.952h16.078
		c3.91,0,7.076-3.166,7.076-7.074V27.393C103.439,23.482,100.273,20.316,96.363,20.316z M99.027,61.269
		c0,0.519-0.426,0.944-0.949,0.944H45.703c-0.523,0-0.945-0.426-0.945-0.944V26.246c0-0.523,0.422-0.949,0.945-0.949h52.375
		c0.523,0,0.949,0.426,0.949,0.949V61.269z"/>
	<path fill="#FFFFFF" stroke="#0E3C54" stroke-width="2" stroke-miterlimit="10" d="M289.77,170.575h-49.594
		c-0.496,0-0.896,0.404-0.896,0.898v33.162c0,0.491,0.399,0.895,0.896,0.895h49.594c0.495,0,0.897-0.403,0.897-0.895v-33.162
		C290.667,170.979,290.265,170.575,289.77,170.575z"/>
	<path fill="#FFFFFF" stroke="#0E3C54" stroke-width="2" stroke-miterlimit="10" d="M286.654,167.287h-43.363
		c-3.46,0-6.27,2.805-6.27,6.27v28.996c0,3.463,2.81,6.268,6.27,6.268h14.246v3.502h-7.191c-1.297,0-2.352,1.055-2.352,2.352
		c0,1.301,1.055,2.351,2.352,2.351h29.256c1.301,0,2.355-1.05,2.355-2.351c0-1.297-1.055-2.352-2.355-2.352h-7.191v-3.502h14.244
		c3.465,0,6.27-2.805,6.27-6.268v-28.996C292.924,170.092,290.119,167.287,286.654,167.287z M288.84,203.457
		c0,0.456-0.373,0.83-0.834,0.83h-46.066c-0.461,0-0.832-0.374-0.832-0.83v-30.804c0-0.46,0.371-0.835,0.832-0.835h46.066
		c0.461,0,0.834,0.375,0.834,0.835V203.457z"/>
	<path fill="#FFFFFF" stroke="#0E3C54" stroke-width="2" stroke-miterlimit="10" d="M157.211,205.589l-3.405,3.874l5.377,5.377
		l3.876-3.402c0.873,0.472,1.804,0.856,2.775,1.145l0.33,5.151h7.604l0.332-5.151c0.971-0.288,1.901-0.673,2.773-1.145l3.873,3.402
		l5.377-5.374l-3.403-3.877c0.474-0.873,0.86-1.801,1.146-2.775l5.147-0.331v-7.602l-5.147-0.335
		c-0.286-0.967-0.673-1.898-1.146-2.772l3.405-3.873l-5.379-5.377l-3.873,3.402c-0.872-0.475-1.803-0.856-2.773-1.145l-0.336-5.151
		h-7.599l-0.331,5.151c-0.972,0.288-1.902,0.67-2.775,1.145l-3.876-3.402l-5.377,5.377l3.405,3.873
		c-0.474,0.874-0.857,1.806-1.148,2.772l-5.147,0.335v7.602l5.147,0.331C156.354,203.784,156.737,204.716,157.211,205.589z
		 M169.967,191.867c3.764,0,6.814,3.052,6.814,6.816c0,3.762-3.051,6.812-6.814,6.812s-6.814-3.051-6.814-6.812
		C163.152,194.919,166.203,191.867,169.967,191.867z"/>
	<path fill="none" stroke="#0E3C54" stroke-width="2" stroke-miterlimit="10" stroke-dasharray="2" d="M161,217.428"/>
	<path fill="none" stroke="#0E3C54" stroke-width="2" stroke-miterlimit="10" stroke-dasharray="2" d="M154.498,175.502
		l-7.713,7.714l4.885,5.556c-0.68,1.254-1.23,2.591-1.648,3.978l-7.385,0.48v10.905l7.385,0.475c0.418,1.393,0.969,2.729,1.648,3.98
		l-4.885,5.559l7.713,7.713"/>
	<path fill="#FFFFFF" stroke="#0E3C54" stroke-width="2" stroke-miterlimit="10" d="M187.902,32.424l-17.934,6.404l2.412-18.891
		c-2.039-0.258-4.156-0.197-6.277,0.244c-10.301,2.132-16.926,12.22-14.787,22.52c2.131,10.296,12.217,16.918,22.52,14.779
		c10.291-2.132,16.918-12.212,14.775-22.52C188.43,34.091,188.193,33.242,187.902,32.424z"/>
	<path fill="#FFEF63" d="M195.348,22.835c-3.141-5.082-8.285-8.16-13.77-8.861l-2.424,18.879l17.932-6.402l0,0
		C196.643,25.203,196.064,23.996,195.348,22.835z"/>
	<path fill="none" stroke="#0E3C54" stroke-width="2" stroke-miterlimit="10" d="M191.348,21.835
		c-3.141-5.082-8.285-8.16-13.77-8.861l-2.424,18.879l17.932-6.402l0,0C192.643,24.203,192.064,22.996,191.348,21.835z"/>
	<g>
		<path fill="none" stroke="#0E3C54" stroke-width="2" stroke-miterlimit="10" stroke-dasharray="2" d="M172.531,13.852
			c-2.842-0.359-5.791-0.275-8.744,0.34c-14.348,2.969-23.576,17.021-20.598,31.367"/>
	</g>
	
		<rect x="25.766" y="107.69" fill="#FFEF63" stroke="#0E3C54" stroke-width="2" stroke-miterlimit="10" width="21.261" height="20.483"/>
	
		<rect x="50.631" y="107.69" fill="#FFFFFF" stroke="#0E3C54" stroke-width="2" stroke-miterlimit="10" width="21.26" height="20.483"/>
	
		<rect x="25.766" y="131.43" fill="#FFFFFF" stroke="#0E3C54" stroke-width="2" stroke-miterlimit="10" width="46.125" height="15.799"/>
	<g>
		<path fill="#FFFFFF" d="M317.467,148.829c0,1.649-1.351,3-3,3h-52.464c-1.65,0-3-1.351-3-3V96.365c0-1.65,1.35-3,3-3h52.464
			c1.649,0,3,1.35,3,3V148.829z"/>
		<path fill="none" stroke="#3D3437" stroke-width="2" stroke-linecap="round" stroke-linejoin="round" stroke-miterlimit="10" d="
			M317.467,148.829c0,1.649-1.351,3-3,3h-52.464c-1.65,0-3-1.351-3-3V96.365c0-1.65,1.35-3,3-3h52.464c1.649,0,3,1.35,3,3V148.829z"
			/>
	</g>
	
		<line fill="none" stroke="#3D3437" stroke-width="2" stroke-linecap="round" stroke-linejoin="round" stroke-miterlimit="10" x1="260.011" y1="103.445" x2="316.459" y2="103.445"/>
	<path fill="#3D3437" d="M267.493,98.405c0,0.696-0.562,1.26-1.262,1.26c-0.693,0-1.259-0.563-1.259-1.26s0.565-1.26,1.259-1.26
		C266.931,97.146,267.493,97.709,267.493,98.405"/>
	<path fill="#3D3437" d="M272.532,98.405c0,0.696-0.562,1.26-1.26,1.26c-0.695,0-1.26-0.563-1.26-1.26s0.564-1.26,1.26-1.26
		C271.97,97.146,272.532,97.709,272.532,98.405"/>
	<path fill="#3D3437" d="M277.573,98.405c0,0.696-0.563,1.26-1.261,1.26c-0.695,0-1.259-0.563-1.259-1.26s0.563-1.26,1.259-1.26
		C277.01,97.146,277.573,97.709,277.573,98.405"/>
	<line fill="none" stroke="#3D3437" stroke-width="2" stroke-miterlimit="10" x1="289.923" y1="98.256" x2="313.747" y2="98.256"/>
	<rect x="268.789" y="131.932" fill="#FFEF63" width="23.051" height="17.395"/>
	
		<rect x="265.789" y="128.932" fill="none" stroke="#0E3C54" stroke-width="2" stroke-miterlimit="10" width="23.051" height="17.395"/>
	
		<rect x="265.789" y="108.592" fill="#FFFFFF" stroke="#0E3C54" stroke-width="2" stroke-miterlimit="10" width="23.051" height="17.391"/>
	
		<rect x="292.504" y="108.592" fill="#FFFFFF" stroke="#0E3C54" stroke-width="2" stroke-miterlimit="10" width="17.778" height="37.734"/>
	<path fill="#FFEF63" d="M85.021,46c0,6.146-4.978,11.125-11.125,11.125c-6.144,0-11.131-4.979-11.131-11.125
		c0-6.142,4.987-11.13,11.131-11.13C80.043,34.87,85.021,39.858,85.021,46z"/>
	<path fill="none" stroke="#0E3C54" stroke-width="2" stroke-miterlimit="10" d="M83.021,44c0,6.146-4.978,11.125-11.125,11.125
		c-6.144,0-11.131-4.979-11.131-11.125c0-6.142,4.987-11.13,11.131-11.13C78.043,32.87,83.021,37.858,83.021,44z"/>
	<path fill-rule="evenodd" clip-rule="evenodd" fill="#FFFFFF" stroke="#0E3C54" stroke-width="2" stroke-miterlimit="10" d="
		M77.544,44.459L69.82,50.08c-0.163,0.113-0.371,0.176-0.584,0.184c-0.02,0-0.033,0.012-0.055,0.012
		c-0.438,0-0.787-0.349-0.787-0.787V38.509c0-0.433,0.35-0.783,0.783-0.789l0,0h0.004c0,0,0.008,0.006,0.014,0.006
		c0.228,0,0.455,0.062,0.625,0.191l7.724,5.611C77.897,43.79,77.897,44.206,77.544,44.459z"/>
	<polygon fill="#FFFFFF" stroke="#0E3C54" stroke-width="2" stroke-miterlimit="10" points="248.027,77.592 232.456,94.933 
		213.321,91.653 213.321,68.656 238.061,60.102 	"/>
	<path fill="#FFFFFF" stroke="#0E3C54" stroke-width="2" stroke-miterlimit="10" d="M227.43,103.493
		c24.115,0,25.835-40.807,25.835-40.807L227.43,48.201l-25.835,14.485C201.595,62.687,203.31,103.493,227.43,103.493z"/>
	<polygon fill="#FFEF63" points="221.563,77.604 227.723,82.078 242.628,69.812 246.801,75.311 227.797,90.437 227.797,90.437 
		227.797,90.437 217.301,81.354 	"/>
	<polygon fill="none" stroke="#0E3C54" stroke-width="2" stroke-miterlimit="10" points="218.563,75.604 224.723,80.078 
		239.628,67.812 243.801,73.311 224.797,88.437 224.797,88.437 224.797,88.437 214.301,79.354 	"/>
	<polyline fill="none" stroke="#0E3C54" stroke-width="2" stroke-miterlimit="10" stroke-dasharray="2" points="254.527,55.125 
		227.43,39.881 209.973,49.669 	"/>
	<circle fill="#FFEF63" cx="267.973" cy="189.673" r="10.443"/>
	<circle fill="none" stroke="#0E3C54" stroke-width="2" stroke-miterlimit="10" cx="264.973" cy="187.673" r="10.443"/>
	<path fill="#FFFFFF" stroke="#0E3C54" stroke-width="2" stroke-miterlimit="10" d="M271.857,183.072l-2.175-1.758
		c-0.23-0.185-0.568-0.149-0.754,0.081l-5.938,7.356l-2.326-2.115c-0.218-0.2-0.558-0.182-0.757,0.036l-1.879,2.067
		c-0.197,0.219-0.183,0.56,0.036,0.758l4.972,4.52c0.219,0.198,0.547,0.173,0.732-0.057l1.752-2.186
		c0.005-0.005,0.005-0.009,0.008-0.015l6.409-7.936C272.124,183.596,272.086,183.258,271.857,183.072z"/>
	<path fill="none" stroke="#0E3C54" stroke-width="2" stroke-miterlimit="10" stroke-dasharray="2" d="M288.035,214.309
		c0,0,11.215,1.676,11.215-11.191v-16.593"/>
	<polyline fill="none" stroke="#0E3C54" stroke-width="2" stroke-miterlimit="10" stroke-dasharray="2" points="58.446,176.969 
		70.667,176.969 70.667,194.438 	"/>
	
		<line fill="#FFFFFF" stroke="#0E3C54" stroke-width="2" stroke-linecap="round" stroke-linejoin="round" stroke-miterlimit="10" x1="214.024" y1="201.994" x2="214.024" y2="179.135"/>
	
		<line fill="#FFFFFF" stroke="#0E3C54" stroke-width="2" stroke-linecap="round" stroke-linejoin="round" stroke-miterlimit="10" x1="208.425" y1="213.424" x2="208.425" y2="190.564"/>
	
		<line fill="#FFFFFF" stroke="#0E3C54" stroke-width="2" stroke-linecap="round" stroke-linejoin="round" stroke-miterlimit="10" x1="22.596" y1="62.197" x2="22.596" y2="39.338"/>
	
		<line fill="#FFFFFF" stroke="#0E3C54" stroke-width="2" stroke-linecap="round" stroke-linejoin="round" stroke-miterlimit="10" x1="16.996" y1="73.627" x2="16.996" y2="50.768"/>
	
		<line fill="#FFFFFF" stroke="#0E3C54" stroke-width="2" stroke-linecap="round" stroke-linejoin="round" stroke-miterlimit="10" x1="125.95" y1="54.178" x2="125.95" y2="31.318"/>
	
		<line fill="#FFFFFF" stroke="#0E3C54" stroke-width="2" stroke-linecap="round" stroke-linejoin="round" stroke-miterlimit="10" x1="245.871" y1="129.361" x2="245.871" y2="106.502"/>
	
		<line fill="#FFFFFF" stroke="#0E3C54" stroke-width="2" stroke-linecap="round" stroke-linejoin="round" stroke-miterlimit="10" x1="240.934" y1="125.486" x2="240.934" y2="111.107"/>
	
		<line fill="#FFFFFF" stroke="#0E3C54" stroke-width="2" stroke-linecap="round" stroke-linejoin="round" stroke-miterlimit="10" x1="313.912" y1="195.007" x2="313.912" y2="172.147"/>
	
		<line fill="#FFFFFF" stroke="#0E3C54" stroke-width="2" stroke-linecap="round" stroke-linejoin="round" stroke-miterlimit="10" x1="119.3" y1="201.839" x2="119.3" y2="178.979"/>
	
		<line fill="#FFFFFF" stroke="#0E3C54" stroke-width="2" stroke-linecap="round" stroke-linejoin="round" stroke-miterlimit="10" x1="119.304" y1="213.58" x2="119.304" y2="209.114"/>
	
		<line fill="none" stroke="#0E3C54" stroke-width="2" stroke-miterlimit="10" stroke-dasharray="2" x1="112.336" y1="213.579" x2="112.336" y2="190.72"/>
	<g>
		
			<line fill="#FFFFFF" stroke="#0E3C54" stroke-width="2" stroke-miterlimit="10" x1="299.25" y1="18.105" x2="299.25" y2="21.426"/>
		
			<line fill="#FFFFFF" stroke="#0E3C54" stroke-width="2" stroke-miterlimit="10" x1="294.313" y1="22.752" x2="297.633" y2="22.752"/>
		<line fill="#FFFFFF" stroke="#0E3C54" stroke-width="2" stroke-miterlimit="10" x1="299.25" y1="27.557" x2="299.25" y2="24.24"/>
		
			<line fill="#FFFFFF" stroke="#0E3C54" stroke-width="2" stroke-miterlimit="10" x1="304.188" y1="22.91" x2="300.869" y2="22.911"/>
	</g>
	<g>
		
			<line fill="#FFFFFF" stroke="#0E3C54" stroke-width="2" stroke-miterlimit="10" x1="237.656" y1="19.39" x2="237.656" y2="22.71"/>
		
			<line fill="#FFFFFF" stroke="#0E3C54" stroke-width="2" stroke-miterlimit="10" x1="232.72" y1="24.036" x2="236.039" y2="24.036"/>
		
			<line fill="#FFFFFF" stroke="#0E3C54" stroke-width="2" stroke-miterlimit="10" x1="237.656" y1="28.841" x2="237.656" y2="25.524"/>
		
			<line fill="#FFFFFF" stroke="#0E3C54" stroke-width="2" stroke-miterlimit="10" x1="242.594" y1="24.194" x2="239.275" y2="24.195"/>
	</g>
	<g>
		
			<line fill="#FFFFFF" stroke="#0E3C54" stroke-width="2" stroke-miterlimit="10" x1="240.934" y1="142.369" x2="240.934" y2="145.689"/>
		
			<line fill="#FFFFFF" stroke="#0E3C54" stroke-width="2" stroke-miterlimit="10" x1="235.997" y1="147.016" x2="239.316" y2="147.016"/>
		
			<line fill="#FFFFFF" stroke="#0E3C54" stroke-width="2" stroke-miterlimit="10" x1="240.934" y1="151.82" x2="240.934" y2="148.504"/>
		
			<line fill="#FFFFFF" stroke="#0E3C54" stroke-width="2" stroke-miterlimit="10" x1="245.871" y1="147.174" x2="242.553" y2="147.175"/>
	</g>
	<g>
		<line fill="#FFFFFF" stroke="#0E3C54" stroke-width="2" stroke-miterlimit="10" x1="23.686" y1="19.39" x2="23.686" y2="22.71"/>
		
			<line fill="#FFFFFF" stroke="#0E3C54" stroke-width="2" stroke-miterlimit="10" x1="18.749" y1="24.036" x2="22.068" y2="24.036"/>
		
			<line fill="#FFFFFF" stroke="#0E3C54" stroke-width="2" stroke-miterlimit="10" x1="23.686" y1="28.841" x2="23.686" y2="25.524"/>
		
			<line fill="#FFFFFF" stroke="#0E3C54" stroke-width="2" stroke-miterlimit="10" x1="28.623" y1="24.194" x2="25.305" y2="24.195"/>
	</g>
	<g>
		
			<line fill="#FFFFFF" stroke="#0E3C54" stroke-width="2" stroke-miterlimit="10" x1="28.285" y1="173.187" x2="28.285" y2="176.507"/>
		
			<line fill="#FFFFFF" stroke="#0E3C54" stroke-width="2" stroke-miterlimit="10" x1="23.349" y1="177.833" x2="26.668" y2="177.833"/>
		
			<line fill="#FFFFFF" stroke="#0E3C54" stroke-width="2" stroke-miterlimit="10" x1="28.285" y1="182.638" x2="28.285" y2="179.321"/>
		
			<line fill="#FFFFFF" stroke="#0E3C54" stroke-width="2" stroke-miterlimit="10" x1="33.223" y1="177.991" x2="29.904" y2="177.992"/>
	</g>
	<g>
		
			<line fill="#FFFFFF" stroke="#0E3C54" stroke-width="2" stroke-miterlimit="10" x1="100.78" y1="97.303" x2="100.78" y2="100.623"/>
		
			<line fill="#FFFFFF" stroke="#0E3C54" stroke-width="2" stroke-miterlimit="10" x1="95.844" y1="101.949" x2="99.163" y2="101.949"/>
		
			<line fill="#FFFFFF" stroke="#0E3C54" stroke-width="2" stroke-miterlimit="10" x1="100.78" y1="106.754" x2="100.78" y2="103.438"/>
		
			<line fill="#FFFFFF" stroke="#0E3C54" stroke-width="2" stroke-miterlimit="10" x1="105.718" y1="102.107" x2="102.399" y2="102.108"/>
	</g>
</g>
<g id="text">
</g>
<g id="Layer_1">
</g>
<g id="Layer_3">
</g>
<g id="Layer_4">
</g>
<g id="Layer_5">
</g>
<g id="Layer_6">
</g>
<g id="Layer_7">
</g>
</svg>
