<?xml version="1.0" encoding="utf-8"?>
<!-- Generator: Adobe Illustrator 18.0.0, SVG Export Plug-In . SVG Version: 6.00 Build 0)  -->
<!DOCTYPE svg PUBLIC "-//W3C//DTD SVG 1.1//EN" "http://www.w3.org/Graphics/SVG/1.1/DTD/svg11.dtd">
<svg version="1.1" id="Layer_1" xmlns="http://www.w3.org/2000/svg" xmlns:xlink="http://www.w3.org/1999/xlink" x="0px" y="0px"
	 viewBox="0 0 1400 1098.2" enable-background="new 0 0 1400 1098.2" xml:space="preserve">
<g id="XMLID_30_">
	<rect id="XMLID_379_" fill="#FFFFFF" width="1400" height="1097"/>
	<g id="XMLID_236_">
		<g id="XMLID_121_">
			
				<rect id="XMLID_125_" x="89.6" y="955.9" transform="matrix(1 -4.950921e-003 4.950921e-003 1 -5.0161 3.3236)" fill="#E5E5E5" width="1158.5" height="117.9"/>
			<g>
				<path fill="#999999" d="M381.3,983.6c0.7,0.8,1.1,1.7,1.1,2.9v47.7c0,1.2-0.4,2.2-1.1,2.9c-0.7,0.8-1.7,1.1-2.8,1.1
					c-1.4,0-2.4-0.5-3.1-1.6l-30.6-40.3v37.8c0,1.2-0.4,2.2-1.1,2.9c-0.7,0.8-1.6,1.1-2.8,1.1c-1.1,0-2.1-0.4-2.7-1.1
					c-0.7-0.7-1-1.7-1-3v-47.7c0-1.2,0.4-2.2,1.1-2.9c0.7-0.8,1.7-1.1,2.8-1.1c1.4,0,2.4,0.5,3.1,1.6l30.6,40.4v-37.9
					c0-1.2,0.3-2.2,1-2.9c0.7-0.8,1.6-1.1,2.7-1.1C379.7,982.5,380.6,982.9,381.3,983.6z"/>
				<path fill="#999999" d="M400.9,1036c-2.8-1.6-5-3.9-6.6-6.9c-1.5-3-2.3-6.5-2.3-10.4c0-4,0.8-7.5,2.3-10.5
					c1.5-3,3.7-5.3,6.6-6.9c2.8-1.6,6.1-2.4,9.9-2.4s7,0.8,9.9,2.4c2.8,1.6,5,3.9,6.6,6.9c1.5,3,2.3,6.5,2.3,10.5
					c0,4-0.8,7.4-2.3,10.4c-1.5,3-3.7,5.3-6.6,6.9c-2.8,1.6-6.1,2.4-9.9,2.4S403.7,1037.6,400.9,1036z M418.7,1028.7
					c1.8-2.3,2.8-5.6,2.8-10.1c0-4.4-0.9-7.7-2.8-10c-1.9-2.3-4.5-3.5-8-3.5s-6.1,1.2-8,3.5c-1.9,2.3-2.8,5.7-2.8,10
					c0,4.4,0.9,7.8,2.8,10.1c1.8,2.3,4.5,3.4,8,3.4C414.2,1032.2,416.9,1031,418.7,1028.7z"/>
				<path fill="#999999" d="M460.8,1037.2c-0.7-0.7-1.1-1.7-1.1-3v-47.4c0-1.2,0.4-2.1,1.1-2.8c0.7-0.7,1.7-1.1,2.9-1.1h18.8
					c5.8,0,10.3,1.4,13.6,4.3c3.2,2.9,4.8,6.9,4.8,12.2c0,5.2-1.6,9.3-4.8,12.2c-3.2,2.9-7.7,4.4-13.6,4.4h-14.7v18.3
					c0,1.2-0.4,2.2-1.1,3s-1.7,1.1-3,1.1C462.5,1038.3,461.5,1037.9,460.8,1037.2z M481.6,1009.4c7.7,0,11.5-3.4,11.5-10.1
					c0-6.7-3.8-10-11.5-10h-13.9v20H481.6z"/>
				<path fill="#999999" d="M532.6,1002.2c0,1.1-0.3,2-0.9,2.6c-0.6,0.6-1.6,0.9-3,1l-2.3,0.2c-3.3,0.3-5.7,1.5-7.3,3.4
					c-1.6,2-2.4,4.4-2.4,7.2v17.9c0,1.2-0.4,2.2-1.1,2.8c-0.7,0.6-1.7,0.9-2.8,0.9c-1.1,0-2.1-0.3-2.8-0.9c-0.8-0.6-1.1-1.6-1.1-2.8
					v-31.7c0-1.2,0.4-2.1,1.1-2.8c0.8-0.6,1.7-1,2.8-1c1,0,1.9,0.3,2.6,1c0.7,0.7,1.1,1.5,1.1,2.7v3.7c1-2.3,2.5-4,4.5-5.2
					c2-1.2,4.2-1.9,6.7-2.1l1.1-0.1C531.3,998.9,532.6,999.9,532.6,1002.2z"/>
				<path fill="#999999" d="M543.3,1036c-2.8-1.6-5-3.9-6.6-6.9c-1.5-3-2.3-6.5-2.3-10.4c0-4,0.8-7.5,2.3-10.5
					c1.5-3,3.7-5.3,6.6-6.9c2.8-1.6,6.1-2.4,9.9-2.4s7,0.8,9.9,2.4c2.8,1.6,5,3.9,6.6,6.9c1.5,3,2.3,6.5,2.3,10.5
					c0,4-0.8,7.4-2.3,10.4c-1.5,3-3.7,5.3-6.6,6.9c-2.8,1.6-6.1,2.4-9.9,2.4S546.1,1037.6,543.3,1036z M561.2,1028.7
					c1.8-2.3,2.8-5.6,2.8-10.1c0-4.4-0.9-7.7-2.8-10c-1.9-2.3-4.5-3.5-8-3.5s-6.1,1.2-8,3.5c-1.9,2.3-2.8,5.7-2.8,10
					c0,4.4,0.9,7.8,2.8,10.1c1.8,2.3,4.5,3.4,8,3.4C556.6,1032.2,559.3,1031,561.2,1028.7z"/>
				<path fill="#999999" d="M614.6,983.5c0.7,0.7,1.1,1.6,1.1,2.7v48.2c0,1.2-0.4,2.1-1.1,2.8c-0.7,0.7-1.7,1-2.8,1
					c-1.2,0-2.1-0.3-2.8-1s-1.1-1.6-1.1-2.8v-3.1c-1.1,2.3-2.8,4-5,5.3c-2.2,1.2-4.7,1.8-7.6,1.8c-3.3,0-6.2-0.8-8.8-2.5
					c-2.6-1.7-4.6-4-6-7c-1.4-3-2.1-6.5-2.1-10.4c0-4,0.7-7.4,2.1-10.4c1.4-3,3.4-5.3,6-6.9c2.5-1.6,5.5-2.4,8.8-2.4
					c2.9,0,5.4,0.6,7.5,1.8c2.2,1.2,3.8,3,5,5.2v-19.8c0-1.1,0.4-2,1.1-2.6c0.7-0.6,1.7-1,2.8-1
					C612.9,982.5,613.9,982.8,614.6,983.5z M605.1,1028.7c1.9-2.3,2.8-5.7,2.8-10c0-4.3-0.9-7.6-2.8-10c-1.8-2.3-4.5-3.5-7.9-3.5
					c-3.4,0-6.1,1.2-8,3.5c-1.9,2.3-2.8,5.6-2.8,9.9s1,7.6,2.9,10c1.9,2.4,4.6,3.6,8,3.6C600.6,1032.2,603.2,1031,605.1,1028.7z"/>
				<path fill="#999999" d="M659,1000c0.7,0.7,1.1,1.6,1.1,2.8v31.7c0,1.1-0.4,2-1.1,2.7c-0.7,0.7-1.7,1-2.9,1c-1.1,0-2-0.3-2.7-1
					c-0.7-0.6-1-1.5-1-2.6v-3c-1.2,2.2-2.8,3.8-5,5c-2.1,1.1-4.5,1.7-7.1,1.7c-9.3,0-13.9-5.1-13.9-15.3v-20.3
					c0-1.2,0.4-2.1,1.1-2.8c0.7-0.7,1.7-1,2.9-1c1.2,0,2.1,0.3,2.8,1c0.7,0.7,1.1,1.6,1.1,2.8v20.2c0,3.1,0.6,5.3,1.9,6.8
					c1.2,1.5,3.2,2.2,5.8,2.2c3.1,0,5.5-1,7.4-3c1.8-2,2.8-4.6,2.8-7.9v-18.3c0-1.1,0.4-2.1,1.1-2.8c0.7-0.7,1.7-1.1,2.9-1.1
					C657.4,999,658.3,999.4,659,1000z"/>
				<path fill="#999999" d="M677.7,1036c-2.8-1.6-4.9-3.9-6.5-6.9c-1.5-3-2.3-6.4-2.3-10.3c0-4,0.8-7.4,2.4-10.5
					c1.6-3,3.8-5.4,6.7-7c2.9-1.7,6.1-2.5,9.8-2.5c2,0,4,0.3,6,0.9c2,0.6,3.8,1.4,5.3,2.3c1.7,1.1,2.5,2.5,2.5,4
					c0,0.9-0.2,1.6-0.7,2.2s-1.1,0.9-1.8,0.9c-0.5,0-0.9-0.1-1.4-0.4c-0.5-0.2-1.1-0.6-1.8-1.1c-1.3-0.8-2.5-1.5-3.6-1.9
					c-1.1-0.4-2.5-0.7-4-0.7c-3.5,0-6.3,1.2-8.2,3.6c-2,2.4-2.9,5.7-2.9,10c0,4.3,1,7.6,2.9,9.9c1.9,2.3,4.7,3.5,8.2,3.5
					c1.6,0,2.9-0.2,4.1-0.7c1.2-0.5,2.4-1.1,3.7-1.9c0.6-0.4,1.1-0.7,1.7-0.9c0.6-0.3,1.1-0.4,1.6-0.4c0.7,0,1.3,0.3,1.8,0.9
					c0.5,0.6,0.7,1.3,0.7,2.2c0,0.7-0.2,1.4-0.6,2c-0.4,0.6-1.1,1.2-2,1.8c-1.6,1-3.4,1.8-5.5,2.4c-2.1,0.6-4.2,0.9-6.3,0.9
					C683.7,1038.4,680.5,1037.6,677.7,1036z"/>
				<path fill="#999999" d="M730,1033.2c0.5,0.5,0.7,1.2,0.7,2.1c0,1-0.4,1.8-1.2,2.4c-0.8,0.5-2,0.8-3.5,0.7l-2.1-0.2
					c-4.2-0.3-7.4-1.6-9.4-3.9c-2.1-2.3-3.1-5.6-3.1-10v-18.3h-4.7c-2.3,0-3.4-1-3.4-3c0-0.9,0.3-1.7,0.9-2.2
					c0.6-0.5,1.4-0.8,2.5-0.8h4.7v-8c0-1.2,0.4-2.1,1.1-2.8c0.7-0.7,1.6-1,2.8-1c1.2,0,2.2,0.3,2.9,1c0.7,0.7,1.1,1.6,1.1,2.8v8h7.7
					c1.1,0,1.9,0.3,2.5,0.8c0.6,0.5,0.9,1.3,0.9,2.2c0,1-0.3,1.7-0.9,2.3c-0.6,0.5-1.4,0.8-2.5,0.8h-7.7v18.9c0,2.4,0.5,4.2,1.5,5.4
					c1,1.1,2.6,1.8,4.6,1.9l2.2,0.2C728.7,1032.4,729.5,1032.7,730,1033.2z"/>
				<path fill="#999999" d="M736.7,1035.1c-0.9-0.6-1.6-1.2-2-1.8c-0.4-0.6-0.6-1.3-0.6-2.1c0-0.8,0.2-1.5,0.7-2.1
					c0.5-0.6,1.1-0.9,1.8-0.9c0.7,0,1.7,0.4,3.2,1.2c1.6,0.8,3.1,1.5,4.6,2c1.5,0.5,3.3,0.8,5.6,0.8c2.5,0,4.4-0.4,5.8-1.3
					c1.4-0.9,2.1-2.1,2.1-3.7c0-1-0.3-1.9-0.8-2.5c-0.5-0.6-1.5-1.2-2.8-1.7c-1.4-0.5-3.4-1-6-1.6c-4.6-1-7.9-2.3-9.9-4
					c-2-1.7-3-4-3-6.9c0-2.2,0.6-4.3,1.9-6s3.1-3.2,5.4-4.2c2.3-1,4.9-1.5,7.8-1.5c2.1,0,4.1,0.3,6.1,0.8c2,0.5,3.7,1.3,5.2,2.4
					c1.7,1.1,2.6,2.5,2.6,4c0,0.8-0.2,1.5-0.7,2.1s-1.1,0.9-1.8,0.9c-0.5,0-0.9-0.1-1.4-0.3c-0.5-0.2-1.1-0.5-1.9-1
					c-1.4-0.8-2.7-1.5-3.9-2c-1.2-0.5-2.7-0.7-4.6-0.7c-2.2,0-3.9,0.5-5.3,1.4c-1.3,0.9-2,2.2-2,3.8c0,1.5,0.6,2.6,1.8,3.4
					c1.2,0.8,3.5,1.6,6.9,2.3c3.5,0.7,6.2,1.6,8.2,2.5c2,0.9,3.4,2.1,4.3,3.5c0.9,1.4,1.3,3.1,1.3,5.3c0,3.4-1.4,6.1-4.3,8.2
					c-2.8,2.1-6.6,3.1-11.3,3.1C744.4,1038.4,740.1,1037.3,736.7,1035.1z"/>
				<path fill="#999999" d="M806.8,991.3c-1.2,1.4-1.9,3.5-1.9,6.3v2.2h7.7c1.1,0,1.9,0.3,2.5,0.8s0.9,1.3,0.9,2.2
					c0,0.9-0.3,1.7-0.9,2.2s-1.4,0.8-2.5,0.8h-7.7v28.5c0,1.2-0.4,2.2-1.1,2.8c-0.8,0.6-1.7,1-2.8,1c-1.1,0-2.1-0.3-2.8-1
					c-0.7-0.6-1.1-1.6-1.1-2.8v-28.5h-4.7c-1.1,0-1.9-0.3-2.5-0.8c-0.6-0.5-0.9-1.3-0.9-2.2c0-0.9,0.3-1.7,0.9-2.2
					c0.6-0.5,1.4-0.8,2.5-0.8h4.7v-1c0-4.8,1.2-8.5,3.7-11.3c2.4-2.7,5.9-4.3,10.4-4.6l2-0.2c1.7-0.1,2.9,0.1,3.6,0.5
					c0.8,0.5,1.1,1.2,1.1,2.3c0,1.8-1.1,2.9-3.3,3.1l-2,0.2C810,989.1,808.1,989.9,806.8,991.3z"/>
				<path fill="#999999" d="M827.6,1036c-2.8-1.6-5-3.9-6.6-6.9c-1.5-3-2.3-6.5-2.3-10.4c0-4,0.8-7.5,2.3-10.5
					c1.5-3,3.7-5.3,6.6-6.9c2.8-1.6,6.1-2.4,9.9-2.4s7,0.8,9.9,2.4c2.8,1.6,5,3.9,6.6,6.9c1.5,3,2.3,6.5,2.3,10.5
					c0,4-0.8,7.4-2.3,10.4c-1.5,3-3.7,5.3-6.6,6.9c-2.8,1.6-6.1,2.4-9.9,2.4S830.4,1037.6,827.6,1036z M845.5,1028.7
					c1.8-2.3,2.8-5.6,2.8-10.1c0-4.4-0.9-7.7-2.8-10c-1.9-2.3-4.5-3.5-8-3.5s-6.1,1.2-8,3.5c-1.9,2.3-2.8,5.7-2.8,10
					c0,4.4,0.9,7.8,2.8,10.1c1.8,2.3,4.5,3.4,8,3.4C840.9,1032.2,843.6,1031,845.5,1028.7z"/>
				<path fill="#999999" d="M897.3,1000c0.7,0.7,1.1,1.6,1.1,2.8v31.7c0,1.1-0.4,2-1.1,2.7c-0.7,0.7-1.7,1-2.9,1c-1.1,0-2-0.3-2.7-1
					c-0.7-0.6-1-1.5-1-2.6v-3c-1.2,2.2-2.8,3.8-5,5c-2.1,1.1-4.5,1.7-7.1,1.7c-9.3,0-13.9-5.1-13.9-15.3v-20.3
					c0-1.2,0.4-2.1,1.1-2.8c0.7-0.7,1.7-1,2.9-1c1.2,0,2.1,0.3,2.8,1c0.7,0.7,1.1,1.6,1.1,2.8v20.2c0,3.1,0.6,5.3,1.9,6.8
					c1.2,1.5,3.2,2.2,5.8,2.2c3.1,0,5.5-1,7.4-3c1.8-2,2.8-4.6,2.8-7.9v-18.3c0-1.1,0.4-2.1,1.1-2.8c0.7-0.7,1.7-1.1,2.9-1.1
					C895.6,999,896.5,999.4,897.3,1000z"/>
				<path fill="#999999" d="M943.5,1014.2v20.3c0,1.2-0.4,2.1-1.1,2.8s-1.7,1-2.9,1c-1.2,0-2.1-0.3-2.8-1s-1.1-1.6-1.1-2.7v-19.9
					c0-3.2-0.6-5.6-1.9-7.1c-1.3-1.5-3.3-2.3-6-2.3c-3.2,0-5.7,1-7.6,3c-1.9,2-2.9,4.6-2.9,8v18.3c0,1.1-0.4,2.1-1.1,2.7
					s-1.7,1-2.8,1c-1.2,0-2.2-0.3-2.9-1c-0.7-0.7-1.1-1.6-1.1-2.7v-31.7c0-1.1,0.4-2,1.1-2.7c0.8-0.7,1.7-1.1,2.8-1.1
					c1.1,0,2.1,0.3,2.7,1c0.7,0.7,1,1.6,1,2.7v3.2c1.2-2.3,3-4,5.2-5.2c2.2-1.2,4.8-1.8,7.6-1.8
					C938.9,998.9,943.5,1004,943.5,1014.2z"/>
				<path fill="#999999" d="M988.2,983.5c0.7,0.7,1.1,1.6,1.1,2.7v48.2c0,1.2-0.4,2.1-1.1,2.8s-1.7,1-2.8,1c-1.2,0-2.1-0.3-2.8-1
					c-0.7-0.7-1.1-1.6-1.1-2.8v-3.1c-1.1,2.3-2.8,4-5,5.3c-2.2,1.2-4.7,1.8-7.6,1.8c-3.3,0-6.2-0.8-8.8-2.5c-2.6-1.7-4.6-4-6-7
					c-1.4-3-2.1-6.5-2.1-10.4c0-4,0.7-7.4,2.1-10.4c1.4-3,3.4-5.3,6-6.9c2.5-1.6,5.5-2.4,8.8-2.4c2.9,0,5.4,0.6,7.5,1.8
					c2.2,1.2,3.8,3,5,5.2v-19.8c0-1.1,0.4-2,1.1-2.6c0.7-0.6,1.6-1,2.8-1C986.5,982.5,987.5,982.8,988.2,983.5z M978.7,1028.7
					c1.9-2.3,2.8-5.7,2.8-10c0-4.3-0.9-7.6-2.8-10c-1.8-2.3-4.5-3.5-7.9-3.5c-3.4,0-6.1,1.2-8,3.5c-1.9,2.3-2.8,5.6-2.8,9.9
					s1,7.6,2.9,10c1.9,2.4,4.6,3.6,8,3.6C974.2,1032.2,976.8,1031,978.7,1028.7z"/>
				<path fill="#999999" d="M1000.6,1036.9c-1-0.9-1.4-2.1-1.4-3.6s0.5-2.7,1.4-3.6c1-1,2.1-1.4,3.5-1.4c1.4,0,2.6,0.5,3.5,1.4
					s1.4,2.2,1.4,3.6s-0.5,2.7-1.4,3.6c-0.9,0.9-2.1,1.4-3.5,1.4C1002.7,1038.3,1001.6,1037.8,1000.6,1036.9z M1002.5,1022.4
					c-0.5-0.5-0.7-1.1-0.8-1.9l-2.3-33.1c-0.2-1.5,0.2-2.6,1.1-3.5c0.9-0.9,2.1-1.4,3.6-1.4c1.5,0,2.6,0.5,3.5,1.4
					c0.9,0.9,1.3,2.1,1.1,3.5l-2.3,33.1c-0.1,0.8-0.3,1.5-0.7,1.9c-0.4,0.4-1,0.7-1.6,0.7C1003.5,1023.1,1003,1022.8,1002.5,1022.4z
					"/>
			</g>
		</g>
		<ellipse id="XMLID_820_" fill="#939598" cx="676.6" cy="879.2" rx="379.2" ry="19"/>
		<circle id="XMLID_732_" fill="#414042" cx="894.8" cy="831.6" r="56"/>
		<circle id="XMLID_758_" fill="#FFFFFF" cx="894.8" cy="831.6" r="40.3"/>
		<circle id="XMLID_763_" fill="#414042" cx="563.1" cy="831.6" r="56"/>
		<circle id="XMLID_762_" fill="#FFFFFF" cx="563.1" cy="831.6" r="40.3"/>
		<path id="XMLID_759_" fill="#BCBEC0" d="M894.8,847.2L894.8,847.2c-9.8,0-17.9-5.2-18.6-12l-8-74.8h53.3l-8.1,74.8
			C912.7,841.9,904.5,847.2,894.8,847.2z"/>
		<path id="XMLID_761_" fill="#BCBEC0" d="M563.1,847.2L563.1,847.2c-9.8,0-17.9-5.2-18.6-12l-8-74.8h53.3l-8.1,74.8
			C581,841.9,572.9,847.2,563.1,847.2z"/>
		<g id="XMLID_889_">
			<path id="XMLID_9_" fill="#CCCCCC" d="M979.6,835.7c-5.7,0-11.2-3.3-13.7-8.8l-8.8-19.5c-8.8-19.5-28.3-32.1-49.6-32.1H521.1
				c-18.2,0-35-9.1-45-24.3c-10-15.2-11.6-34.3-4.3-51l25.7-59l-40.2-358.9c-2.9-26-20.9-47.7-45.9-55.3L309,195.7
				c-7.9-2.4-12.4-10.8-10-18.7c2.4-7.9,10.8-12.4,18.7-10l102.4,31.1c36.5,11.1,62.8,42.7,67,80.6l41.1,366.9L499.3,712
				c-3.3,7.5-2.6,15.7,1.9,22.5c4.5,6.8,11.7,10.8,19.9,10.8h386.4c33.2,0,63.4,19.5,77,49.8l8.8,19.5c3.4,7.6,0,16.4-7.5,19.8
				C983.7,835.3,981.6,835.7,979.6,835.7z"/>
		</g>
		<g id="XMLID_893_">
			<g id="XMLID_894_">
				<g id="XMLID_6_">
					<path fill="#CCCCCC" d="M504,653.7l-37.4-334.6l543,32.4c6.8,0.4,13,3.8,17,9.4c4,5.5,5.2,12.5,3.4,19.1l-65.5,239.1
						c-2.6,9.5-11,16.1-20.8,16.5L504,653.7z M489,340.5l32.7,292.4l421-17.3c1.1,0,2-0.8,2.3-1.8l65.5-239.1c0.3-1-0.1-1.7-0.4-2.1
						c-0.3-0.4-0.9-1-1.9-1L489,340.5z"/>
				</g>
			</g>
			<g id="XMLID_895_">
				<g id="XMLID_907_">
					<g id="XMLID_38_">
						<path id="XMLID_49_" fill="#CCCCCC" d="M570.4,651c-5.1,0-9.4-3.8-9.9-9l-30.8-307.4c-0.6-5.5,3.5-10.4,9-10.9
							c5.5-0.5,10.4,3.5,10.9,9L580.4,640c0.6,5.5-3.5,10.4-9,10.9C571.1,650.9,570.7,651,570.4,651z"/>
					</g>
					<g id="XMLID_37_">
						<path id="XMLID_48_" fill="#CCCCCC" d="M626.3,648.3c-5.3,0-9.7-4.2-10-9.5l-13.7-300c-0.3-5.5,4-10.2,9.5-10.4
							c5.5-0.2,10.2,4,10.4,9.5l13.7,300c0.3,5.5-4,10.2-9.5,10.4C626.6,648.3,626.4,648.3,626.3,648.3z"/>
					</g>
					<g id="XMLID_36_">
						<path id="XMLID_47_" fill="#CCCCCC" d="M682.1,645.7c0,0-0.1,0-0.1,0c-5.5-0.1-9.9-4.6-9.9-10.1l3.4-292.5
							c0.1-5.5,4.5-9.9,10-9.9c0,0,0.1,0,0.1,0c5.5,0.1,9.9,4.6,9.9,10.1l-3.4,292.5C692.1,641.3,687.6,645.7,682.1,645.7z"/>
					</g>
					<g id="XMLID_31_">
						<path id="XMLID_46_" fill="#CCCCCC" d="M738,643.1c-0.2,0-0.5,0-0.7,0c-5.5-0.4-9.7-5.2-9.3-10.7l20.6-285.1
							c0.4-5.5,5.2-9.7,10.7-9.3c5.5,0.4,9.7,5.2,9.3,10.7L748,633.8C747.6,639.1,743.2,643.1,738,643.1z"/>
					</g>
					<g id="XMLID_15_">
						<path id="XMLID_45_" fill="#CCCCCC" d="M793.9,640.5c-0.4,0-0.9,0-1.4-0.1c-5.5-0.7-9.3-5.8-8.6-11.3l37.7-277.6
							c0.7-5.5,5.8-9.3,11.3-8.6c5.5,0.7,9.3,5.8,8.6,11.3l-37.7,277.6C803.1,636.8,798.8,640.5,793.9,640.5z"/>
					</g>
					<g id="XMLID_14_">
						<path id="XMLID_44_" fill="#CCCCCC" d="M849.7,637.9c-0.7,0-1.3-0.1-2-0.2c-5.4-1.1-8.9-6.4-7.8-11.8l54.9-270.2
							c1.1-5.4,6.4-8.9,11.8-7.8c5.4,1.1,8.9,6.4,7.8,11.8l-54.9,270.2C858.5,634.6,854.4,637.9,849.7,637.9z"/>
					</g>
					<g id="XMLID_13_">
						<path id="XMLID_43_" fill="#CCCCCC" d="M905.6,635.2c-0.9,0-1.8-0.1-2.6-0.4c-5.3-1.5-8.5-7-7-12.3l72-262.8
							c1.5-5.3,7-8.5,12.3-7c5.3,1.5,8.5,7,7,12.3l-72,262.8C914,632.3,910,635.2,905.6,635.2z"/>
					</g>
				</g>
				<g id="XMLID_916_">
					<g id="XMLID_35_">
						<path id="XMLID_41_" fill="#CCCCCC" d="M507.1,602c-5.4,0-9.8-4.3-10-9.7c-0.2-5.5,4.2-10.1,9.7-10.3l458.3-14.4
							c5.5-0.1,10.1,4.2,10.3,9.7s-4.2,10.1-9.7,10.3L507.4,602C507.3,602,507.2,602,507.1,602z"/>
					</g>
					<g id="XMLID_34_">
						<path id="XMLID_39_" fill="#CCCCCC" d="M499.7,535.6c-5.5,0-10-4.4-10-9.9c0-5.5,4.4-10,9.9-10.1l481.1-4
							c5.5-0.1,10,4.4,10.1,9.9c0,5.5-4.4,10-9.9,10.1L499.7,535.6C499.8,535.6,499.7,535.6,499.7,535.6z"/>
					</g>
					<g id="XMLID_33_">
						<path id="XMLID_12_" fill="#CCCCCC" d="M996.1,475.6c0,0-0.1,0-0.1,0l-503.8-6.4c-5.5-0.1-9.9-4.6-9.9-10.1
							c0.1-5.5,4.7-9.9,10.1-9.9l503.8,6.4c5.5,0.1,9.9,4.6,9.9,10.1C1006,471.2,1001.6,475.6,996.1,475.6z"/>
					</g>
					<g id="XMLID_32_">
						<path id="XMLID_11_" fill="#CCCCCC" d="M1011.4,419.6c-0.1,0-0.2,0-0.3,0l-526.6-16.9c-5.5-0.2-9.9-4.8-9.7-10.3
							c0.2-5.5,4.8-9.9,10.3-9.7l526.6,16.9c5.5,0.2,9.9,4.8,9.7,10.3C1021.2,415.4,1016.8,419.6,1011.4,419.6z"/>
					</g>
				</g>
			</g>
		</g>
		<circle id="XMLID_917_" fill="#58595B" cx="894.8" cy="831.6" r="9.6"/>
		<circle id="XMLID_918_" fill="#58595B" cx="563.1" cy="831.6" r="9.6"/>
		<g id="XMLID_69_">
			<circle id="XMLID_92_" fill="#FBB040" cx="1138" cy="486.6" r="72"/>
		</g>
		<g id="XMLID_100_">
			<circle id="XMLID_102_" fill="#FFFFFF" cx="1210" cy="333.5" r="56.2"/>
		</g>
		<g id="XMLID_2_">
			<circle id="XMLID_17_" fill="#FBB040" cx="207.4" cy="216.2" r="39.1"/>
		</g>
		<g id="XMLID_194_">
			<circle id="XMLID_196_" fill="#EF61A4" cx="817.5" cy="181.3" r="56.2"/>
		</g>
		<g id="XMLID_166_">
			<circle id="XMLID_193_" fill="#1C75BC" cx="589.8" cy="643.3" r="56.2"/>
		</g>
		<g id="XMLID_40_">
			<circle id="XMLID_4_" fill="#EF61A4" cx="488.3" cy="459.7" r="82.7"/>
		</g>
		<g id="XMLID_890_">
			<path id="XMLID_10_" fill="#ED1C24" d="M405.7,239.4c-2.9,0-5.9-0.4-8.8-1.3l-108.2-33.2c-15.8-4.9-24.7-21.6-19.9-37.5
				c4.9-15.8,21.6-24.7,37.5-19.9l108.2,33.2c15.8,4.9,24.7,21.6,19.9,37.5C430.4,231.1,418.5,239.4,405.7,239.4z"/>
		</g>
		<g id="XMLID_70_">
			<circle id="XMLID_136_" fill="#1C75BC" cx="987.8" cy="323.6" r="119.7"/>
		</g>
		
			<line id="XMLID_228_" fill="none" stroke="#414042" stroke-width="2" stroke-miterlimit="10" x1="454.9" y1="693.5" x2="507.1" y2="693.5"/>
		
			<line id="XMLID_229_" fill="none" stroke="#414042" stroke-width="2" stroke-miterlimit="10" x1="454.9" y1="742.9" x2="507.1" y2="742.9"/>
		<path fill="#FFFFFF" d="M987.8,316.7c0.7,0,2.1,0,4.5,0c5.5,0,6.2,7,6.2,7s3.7,24.2,15,31.6c7.7,5,23.4,4.8,23.4,4.8
			s2.7,0.2,17.7-0.4c14.8-0.6,19.2-10.3,19.2-10.3l10.6-21.3c1.4-3.2,7.4-10.7,7.4-10.7l0.1-14.5c-6.9-3.1-21.8-4.2-35.6-5.2
			c-13.7-1-30.8,1.4-38.8,3.6c-8,2.2-24.2,4.9-24.2,4.9l-10.9-0.1c0,0-16.1-2.9-24.1-5.2c-8-2.3-25-5-38.8-4.1
			c-13.7,0.8-28.7,1.7-35.6,4.7l-0.1,14.5c0,0,5.9,7.6,7.3,10.9l10.2,21.4c0,0,4.3,9.7,19.1,10.5c15,0.8,17.7,0.6,17.7,0.6
			s15.7,0.5,23.4-4.5c11.4-7.2,15.4-31.4,15.4-31.4s0.8-6.9,6.3-6.9C985.7,316.7,987.1,316.7,987.8,316.7z M1076.3,326.8
			c-3.6,15.6-7.2,20.3-10.8,23.6c-4.6,4.2-17.8,4.5-25.4,4.4c-7.6-0.1-16.7,0.6-23.6-4.4c-7.8-5.7-13-24.8-10-34.2
			c3-9.4,20.9-11.7,20.9-11.7c14.3-1.5,31.3-0.7,38.5,0.9C1073.1,307,1079.9,311.2,1076.3,326.8z M909.9,304.3
			c7.2-1.5,24.3-2.1,38.5-0.4c0,0,17.9,2.5,20.7,12c2.9,9.5-2.6,28.4-10.5,34.1c-6.9,4.9-16,4.2-23.6,4.1
			c-7.6-0.1-20.8-0.5-25.3-4.8c-3.6-3.3-7.1-8.1-10.5-23.7C895.9,309.9,902.7,305.8,909.9,304.3z"/>
		<path fill="#FFFFFF" d="M822.3,175.9l2.9,6.3c5.6,13.1,16.4,15.6,19.5,15.7c3.2,0.1,10-1.3,15.4-6.7c5.3-5.4,8.8-16.5,8.8-16.5
			l1.8-1.7l0.4-2.7c0.1-0.3-0.1-0.7-0.4-0.9l-2.1-1.6c-4.5-8-8.1-10.7-12.1-11.5c-4-0.8-10.5,2.7-10.5,2.7s-5.9-3.1-11.8-2.6
			c-6.5,0.6-9.9,6.4-12.1,10c-0.6,1-1.7,1-1.7,1h-3.9c0,0-1.1-0.1-1.7-1c-2.2-3.6-5.6-9.4-12.1-10c-6-0.6-11.8,2.6-11.8,2.6
			s-6.5-3.5-10.5-2.7c-4,0.8-7.6,3.5-12.1,11.5l-2.1,1.6c-0.3,0.2-0.4,0.6-0.4,0.9l0.4,2.7l1.8,1.7c0,0,3.4,11.1,8.8,16.5
			c5.3,5.4,12.2,6.9,15.4,6.7c3.2-0.1,13.9-2.6,19.5-15.7l2.9-6.3H822.3z M864.4,179c-1.9,6.9-8.1,12.3-11.6,14.4
			c-3.4,2.1-8.1,3.7-14.9,0c-6.9-3.7-12.8-14.2-13-21.7c-0.2-7.5,5.8-12.5,10.5-12.6c5.7-0.1,10.3,3.6,10.3,3.6
			c5.6-4.4,10.7-3.4,10.7-3.4C865.6,161.2,866.3,172.1,864.4,179z M780.8,159.3c0,0,5.1-1,10.7,3.4c0,0,4.6-3.7,10.3-3.6
			c4.8,0.1,10.7,5.1,10.5,12.6c-0.2,7.5-6.1,18-13,21.7c-6.9,3.7-11.5,2.1-14.9,0c-3.4-2.1-9.7-7.5-11.6-14.4
			C770.9,172.1,771.5,161.2,780.8,159.3z"/>
		<path fill="#FFFFFF" d="M1138,479.3c3.4,0.4,2.8,2.2,6.3,8.2c3.6,6.3,7.1,15.1,20.7,17.3c13.6,2.3,21.6-6.8,27.6-13.9
			c6-7.1,11.2-23.6,11.2-23.6s0,0,0.4-3.3c0.4-3.3-10.8-5.1-27.1-3.7c-16.3,1.3-31.2,10.1-31.2,10.1s-3.6,1.7-7.9,1.6
			c-4.3,0.1-7.9-1.6-7.9-1.6s-14.9-8.8-31.2-10.1c-16.3-1.3-27.5,0.4-27.1,3.7c0.4,3.3,0.4,3.3,0.4,3.3s5.2,16.5,11.2,23.6
			c6,7.1,14,16.1,27.6,13.9c13.6-2.3,17.1-11.1,20.7-17.3C1135.2,481.6,1134.6,479.7,1138,479.3z M1190.9,485.8
			c-3.4,10.5-15.9,20.4-28.9,16.3c-13.1-4.1-17.6-20.4-16.9-24.3c0.7-3.9,9.1-11.3,25.7-13.6c16.3-2.3,19.5,3.1,19.5,3.1
			S1195,473.5,1190.9,485.8z M1085.7,467.3c0,0,3.2-5.3,19.5-3.1c16.6,2.3,25.1,9.7,25.7,13.6c0.7,3.9-3.9,20.1-16.9,24.3
			c-13.1,4.1-25.5-5.8-28.9-16.3C1081.1,473.5,1085.7,467.3,1085.7,467.3z"/>
		<path fill="#999999" d="M1209.1,322c0.4,0,1.1,0.1,2,0.3c1.4,0.3,1.7,2,1.7,2c1.4,3.2,3,15,19.6,14c16.6-1.1,18.2-16.2,18.7-17.3
			c0.5-1.1,2.6-2,2.6-2v-3.3c0,0-4.2-1.9-17.3-2.4c-13.1-0.5-21.6,4.9-22.5,5.7c-0.8,0.7-1.2,0.7-1.2,0.7l-3.6-0.1l-3.6,0.1
			c0,0-0.3,0.1-1.2-0.7c-0.8-0.7-9.4-6.1-22.5-5.7c-13.1,0.5-17.3,2.4-17.3,2.4v3.3c0,0,2.1,0.8,2.6,2c0.5,1.1,2,16.2,18.7,17.3
			c16.6,1.1,18.2-10.8,19.6-14c0,0,0.3-1.7,1.7-2C1208,322.1,1208.7,322.1,1209.1,322z M1243.3,332.9c-6,5.3-18.3,5-23.1,1.1
			c-4.9-3.8-5.4-10.2-5.1-12.2c0.3-2,3.4-3.6,3.4-3.6s5.4-3.2,16.3-3.4c10.9-0.3,12.7,2.7,13.1,4.2
			C1248.3,320.5,1249.3,327.7,1243.3,332.9z M1170.3,319c0.4-1.5,2.2-4.5,13.1-4.2c10.9,0.3,16.3,3.4,16.3,3.4s3.2,1.6,3.4,3.6
			c0.3,2-0.2,8.3-5.1,12.2c-4.9,3.8-17.1,4.1-23.1-1.1C1168.9,327.7,1169.9,320.5,1170.3,319z"/>
		<path fill="#FFFFFF" d="M498.7,446c0.6,6.5,1.4,31.6,27.3,31.6c25.8,0,31-17.5,32.4-23.3c1.3-5.8,1.6-6,1.6-6h5.2v-3.9h-6.1
			c0,0-3-4.6-7.4-7.5c-6.8-4.5-21.5-3.9-32.8-2.6c-13.9,1.5-19.3,8.3-19.3,8.3l-0.8,0.6h-20.4l-0.8-0.6c0,0-5.4-6.7-19.3-8.3
			c-11.3-1.3-25.9-1.9-32.8,2.6c-4.4,2.9-7.4,7.5-7.4,7.5h-6.1v3.9h5.2c0,0,0.3,0.2,1.6,6c1.3,5.8,6.6,23.3,32.4,23.3
			c25.8,0,26.7-25.1,27.3-31.6L498.7,446z M551.1,464.9c-6,8.5-20.5,14.3-35.5,9.2c-14.7-4.9-14.4-27.5-14.4-27.5
			c2-9.2,21-10.8,21.3-10.8c0.3,0,12.9-1.8,21.5,0.5c10.5,2.8,11.9,9.1,11.9,9.1C557.3,452.3,555.4,458.9,551.1,464.9z M421.3,445.5
			c0,0,1.4-6.3,11.9-9.1c8.6-2.3,21.2-0.5,21.5-0.5c0.3,0,19.3,1.6,21.3,10.8c0,0,0.4,22.5-14.4,27.5c-14.9,5-29.5-0.8-35.5-9.2
			C422,458.9,420.1,452.3,421.3,445.5z"/>
		<path fill="#FFFFFF" d="M589.8,632.7c3.6,0,4,1.4,4,1.4s3.6,11,6.7,15.3c3.1,4.3,12.7,3.2,18.4,2.6c5.7-0.6,7.9-4.9,9-8.5
			c1.2-3.6,4.1-8.2,4.1-8.2l2.4-2.9v-7.4c-3.4-1.9-16.4-1.9-16.4-1.9c-10.7,0.3-19.7,3.9-21.9,4.7c-2.2,0.8-4.2,0.8-4.2,0.8l-2.1,0
			l-2.1,0c0,0-2,0.1-4.2-0.8c-2.2-0.8-11.2-4.5-21.9-4.7c0,0-13-0.1-16.4,1.9v7.4l2.4,2.9c0,0,3,4.6,4.1,8.2c1.2,3.6,3.3,7.9,9,8.5
			c5.7,0.6,15.3,1.7,18.4-2.6c3.1-4.3,6.7-15.3,6.7-15.3S586.2,632.7,589.8,632.7z M624.9,643.8c-1.4,2.9-1.6,4.8-6.7,5.7
			c-5.1,0.8-12.8,0.9-15.3-1.1c-2.5-2-6.2-11.9-5.6-14.5c0.6-2.5,9.5-7.3,18.9-7.3c10.7,0,11.2,3.7,11.2,3.7
			C628.3,631.7,626.2,640.9,624.9,643.8z M552.1,630.3c0,0,0.5-3.7,11.2-3.7c9.5,0,18.3,4.7,18.9,7.3c0.6,2.5-3,12.4-5.6,14.5
			c-2.5,2-10.2,1.9-15.3,1.1c-5.1-0.8-5.3-2.8-6.7-5.7C553.3,640.9,551.2,631.7,552.1,630.3z"/>
		<path fill="#FFFFFF" d="M209.6,211.9c1.9,0.4,1.2,1.6,1.2,1.8c0,0.2,0.7,10.5,9.9,13.2c9.2,2.7,14.7-2.6,16.3-5.3
			c1.6-2.7,2.9-9,3.3-9.5c0.4-0.5,2.3-1.3,2.3-1.3l0.2-2.5l-2.4-0.7c0,0-6.1-2.8-15-2.9c-8.9-0.1-13.9,5-13.9,5
			c-2.5-0.8-5.6-0.9-8.5,0c0,0-5-5.1-13.9-5c-8.9,0.1-15,2.9-15,2.9l-2.4,0.7l0.2,2.5c0,0,1.9,0.8,2.3,1.3c0.4,0.5,1.7,6.9,3.3,9.5
			c1.6,2.7,7.1,8,16.3,5.3c9.2-2.7,9.9-13,9.9-13.2c0-0.2-0.7-1.4,1.2-1.8C206.9,211.6,208,211.6,209.6,211.9z M231.8,224.9
			c-7,4.2-15.5,0-18-5.6c-2.5-5.6-0.4-8.5-0.4-8.5c4.2-6.9,21.4-7.2,24.3,0.3C238.2,212.3,238.8,220.6,231.8,224.9z M177.2,211
			c2.9-7.5,20.1-7.2,24.3-0.3c0,0,2.1,2.9-0.4,8.5c-2.5,5.6-11,9.8-18,5.6C176.1,220.6,176.7,212.3,177.2,211z"/>
	</g>
</g>
</svg>
